<?xml version="1.0" standalone="no"?>
<!DOCTYPE svg PUBLIC "-//W3C//DTD SVG 20010904//EN"
 "http://www.w3.org/TR/2001/REC-SVG-20010904/DTD/svg10.dtd">
<svg version="1.0" xmlns="http://www.w3.org/2000/svg"
 width="679.000000pt" height="876.000000pt" viewBox="0 0 679.000000 876.000000"
 preserveAspectRatio="xMidYMid meet">

<g transform="translate(0.000000,876.000000) scale(0.100000,-0.100000)"
fill="#000000" stroke="none">
<path d="M0 4380 l0 -4380 474 0 c462 1 474 1 479 20 5 21 -8 29 -15 9 -2 -7
-9 -5 -17 5 -12 14 -10 15 18 12 17 -2 31 1 31 7 0 6 3 7 6 4 4 -4 1 -13 -5
-21 -7 -8 -10 -20 -7 -25 8 -13 226 -11 226 2 0 5 6 4 14 -2 8 -7 36 -11 65
-9 50 3 64 11 38 21 -10 4 -14 37 -8 66 1 2 8 -2 16 -9 17 -14 21 0 4 17 -8 8
-7 13 2 18 8 5 10 4 5 -3 -4 -7 -2 -12 3 -12 18 0 12 -26 -9 -45 -19 -17 -19
-18 4 -36 13 -11 30 -19 36 -19 7 0 2 9 -11 19 -23 19 -23 19 -5 40 15 16 23
18 38 10 11 -6 22 -9 24 -6 3 2 -9 10 -26 17 -42 17 -55 44 -40 81 7 16 20 30
29 31 45 5 109 3 100 -3 -8 -4 -8 -9 1 -14 21 -13 -19 -45 -49 -40 -23 4 -22
4 4 -6 47 -18 56 -29 53 -70 -1 -21 -4 -36 -8 -34 -3 2 -12 -2 -21 -8 -13 -10
-4 -13 48 -15 38 -1 63 2 63 8 0 5 5 10 11 10 5 0 8 -3 6 -7 -3 -5 11 -9 32
-10 27 -1 31 1 16 7 -31 12 -55 44 -62 82 -4 29 0 41 25 69 27 30 36 34 81 34
33 0 56 -6 67 -16 15 -16 18 -15 36 3 20 20 59 21 101 3 10 -4 17 -3 17 4 0 6
-8 11 -19 11 -10 0 -21 9 -24 20 -4 17 -12 20 -41 18 -19 -1 -38 1 -42 5 -4 4
8 7 26 7 19 0 39 7 47 18 12 13 14 14 10 1 -3 -8 4 -26 14 -40 15 -20 19 -21
19 -6 0 9 5 17 11 17 6 0 8 -7 5 -16 -3 -8 -1 -25 5 -37 7 -12 8 -19 4 -15 -4
4 -16 -3 -26 -16 -13 -16 -26 -23 -41 -20 -21 4 -21 4 2 -6 63 -28 75 -62 35
-103 l-26 -25 25 2 c13 0 22 4 19 9 -2 4 2 7 9 7 10 0 9 3 -2 11 -13 9 -13 10
0 6 8 -2 13 -12 12 -23 -2 -10 0 -15 5 -11 4 5 13 57 20 115 l11 107 -2 -113
c-1 -61 1 -112 5 -112 4 0 9 51 11 114 l3 114 -32 12 c-19 6 -33 18 -33 28 0
14 1 14 13 0 15 -20 80 -50 98 -46 11 2 15 -20 17 -109 2 -76 6 -113 14 -113
6 0 9 3 5 6 -3 4 0 13 8 21 10 9 15 35 15 72 0 44 3 58 15 58 8 0 11 -5 7 -11
-11 -18 -9 -133 3 -133 5 0 24 -4 40 -8 l30 -7 -31 26 c-39 32 -49 76 -28 121
27 57 102 73 149 32 26 -22 26 -23 7 -40 -16 -15 -24 -16 -45 -6 -31 14 -57
-1 -57 -32 0 -28 28 -39 65 -23 28 11 32 11 43 -7 18 -28 15 -38 -14 -50 -15
-5 -24 -12 -20 -16 3 -3 17 0 31 7 20 11 24 20 22 51 -2 36 -3 38 -36 35 -28
-2 -31 -1 -17 10 9 6 26 10 36 7 16 -4 20 0 20 21 0 15 -4 35 -9 45 -8 15 -5
17 27 16 33 0 38 -3 42 -30 7 -42 40 -47 40 -6 0 16 -4 33 -10 36 -5 3 -10 1
-10 -5 0 -6 -5 -8 -10 -5 -14 9 7 35 27 35 8 0 11 5 8 10 -4 6 6 10 24 10 23
0 29 -4 25 -15 -4 -8 -15 -15 -27 -15 -11 0 -17 -3 -13 -7 4 -4 55 -8 114 -9
l107 -1 3 -27 c3 -25 1 -26 -45 -28 -36 -1 -40 -2 -15 -5 24 -3 32 -9 32 -24
0 -10 5 -19 11 -19 5 0 7 5 3 12 -4 7 -3 8 4 4 25 -15 10 -26 -35 -28 l-48 -1
45 -6 c40 -5 45 -9 50 -36 4 -26 10 -30 43 -33 20 -2 37 0 38 5 6 60 6 74 -2
78 -5 4 -9 -12 -9 -34 0 -39 -2 -41 -30 -41 l-30 0 0 95 c0 83 2 94 16 88 15
-5 16 0 11 43 -3 27 -3 41 -1 32 7 -23 24 -23 25 0 0 9 3 12 5 5 3 -6 1 -28
-5 -49 -5 -20 -8 -34 -4 -31 3 3 17 -8 31 -24 l25 -30 29 32 c16 17 26 34 23
37 -3 4 -9 2 -13 -3 -4 -6 -11 -11 -17 -12 -5 -1 -18 -5 -28 -8 -10 -4 -17 -4
-16 1 1 5 1 18 -1 29 l-1 20 -9 -20 c-13 -29 -12 -4 2 54 l11 51 79 0 c60 0
78 3 78 14 0 10 22 16 80 21 69 6 80 10 80 26 0 18 9 19 121 19 119 0 120 0
117 23 -2 17 -8 21 -27 19 -20 -3 -23 0 -18 16 3 13 -1 23 -10 26 -22 9 -33 7
-33 -4 0 -5 8 -7 18 -4 14 5 15 4 2 -5 -9 -6 -18 -7 -24 -1 -6 6 -25 10 -44
10 -25 0 -33 -4 -29 -14 3 -8 -1 -17 -10 -20 -18 -7 -33 1 -32 17 0 9 2 8 6
-1 2 -6 9 -10 14 -6 14 8 11 24 -5 24 -26 0 -56 50 -56 92 0 31 6 45 25 60 21
16 23 22 13 38 -7 10 -15 17 -18 15 -3 -2 -5 11 -5 28 3 67 54 106 122 91 21
-4 44 -8 50 -7 7 0 10 -3 7 -9 -3 -5 -1 -14 4 -21 5 -7 8 -30 7 -52 -4 -56 -4
-57 -14 -50 -15 9 -24 -16 -11 -28 10 -9 11 -9 6 0 -5 10 4 13 33 13 23 0 41
5 41 10 0 6 -10 8 -24 4 -20 -5 -25 -2 -23 14 0 11 10 25 20 32 11 6 16 7 13
2 -11 -18 25 -44 50 -38 19 5 24 2 24 -11 0 -13 -2 -15 -9 -5 -5 8 -8 0 -9
-23 -1 -19 3 -35 9 -35 6 0 7 4 4 10 -8 13 24 72 35 65 6 -4 10 -11 10 -16 0
-6 -5 -7 -11 -3 -8 4 -9 -1 -4 -17 4 -17 3 -20 -3 -10 -12 17 -24 -1 -16 -23
7 -19 21 -21 27 -3 4 9 7 9 17 0 10 -9 11 -15 1 -27 -6 -7 -11 -18 -10 -22 4
-26 -2 -46 -14 -41 -8 3 -20 1 -28 -4 -12 -7 -11 -9 2 -9 23 0 49 -32 31 -37
-6 -3 -9 -9 -6 -14 3 -6 12 -2 21 8 13 17 14 17 9 0 -3 -9 -1 -17 4 -17 6 0
10 9 10 20 0 11 -7 20 -15 20 -8 0 -15 3 -15 8 0 4 25 76 56 160 l57 152 52 0
c58 0 60 -3 90 -95 9 -27 23 -66 32 -85 8 -19 21 -50 29 -68 22 -50 18 -69
-13 -73 -52 -7 -72 1 -84 34 -10 30 -15 32 -48 29 -20 -2 -43 -6 -51 -8 -27
-9 10 -22 40 -14 33 10 50 0 53 -28 1 -12 5 -22 10 -22 5 0 6 -8 3 -18 -5 -14
-4 -14 9 2 13 18 20 15 16 -7 -2 -11 17 -9 24 3 3 5 12 10 18 10 7 0 6 -4 -3
-10 -12 -7 -10 -9 8 -7 13 1 21 6 18 14 -3 6 3 15 13 18 13 4 18 12 14 28 -4
20 -3 20 7 4 9 -15 8 -22 -4 -36 -24 -26 -19 -35 6 -12 23 22 46 18 27 -5 -7
-9 -8 -14 -1 -14 6 0 13 6 16 13 5 9 7 9 12 0 7 -16 25 -17 22 -2 -2 6 3 14
10 16 8 3 10 -1 6 -11 -3 -9 -1 -16 6 -16 6 0 8 5 4 12 -5 8 -2 9 10 5 10 -4
15 -3 11 3 -3 6 4 10 17 11 22 0 22 1 3 8 -12 5 -23 4 -27 -3 -6 -8 -8 -7 -8
1 0 9 -7 10 -22 4 -56 -21 -115 54 -105 135 7 67 42 97 105 92 l45 -3 -6 68
c-5 59 -4 68 9 63 9 -3 18 -6 20 -6 2 0 4 -5 4 -11 0 -8 -5 -8 -15 1 -12 10
-15 10 -15 -4 0 -12 10 -16 48 -16 l47 0 -3 -147 -3 -148 32 -18 c30 -17 31
-17 18 -1 -12 16 -12 17 4 11 10 -4 23 -7 29 -7 6 0 5 -6 -2 -15 -9 -11 -10
-19 -3 -26 7 -7 14 -5 22 5 11 13 9 20 -8 42 -12 15 -21 22 -21 16 0 -8 -8 -9
-24 -2 -13 5 -26 7 -28 5 -2 -2 -5 7 -6 21 -1 15 2 23 8 19 6 -3 10 5 10 19 0
14 -4 28 -10 31 -5 3 -10 16 -10 28 1 18 4 16 20 -13 23 -42 27 -22 4 21 -8
17 -17 47 -20 67 -4 33 -3 34 9 18 10 -14 22 -17 46 -14 27 4 34 1 41 -16 4
-12 12 -32 18 -46 l10 -25 12 30 c9 25 8 35 -6 60 -10 16 -22 33 -28 38 -6 4
8 6 31 4 24 -2 46 -6 49 -10 4 -3 15 -2 25 3 12 7 19 6 22 -3 4 -8 8 -8 14 -2
4 6 14 11 22 13 12 3 12 0 2 -12 -8 -10 -9 -16 -1 -21 5 -3 10 -12 10 -18 0
-7 -6 -5 -13 5 -7 9 -26 20 -43 23 -22 5 -25 4 -14 -4 13 -9 13 -11 -2 -11
-10 0 -18 4 -18 9 0 5 -13 11 -30 13 -33 5 -34 4 -21 -21 8 -15 18 -16 61 -11
58 7 63 5 49 -22 -6 -11 -8 -26 -5 -34 3 -9 1 -12 -4 -9 -6 3 -10 2 -10 -4 0
-5 -3 -16 -6 -24 -3 -10 2 -17 13 -20 14 -4 14 -5 -4 -6 -13 0 -23 -5 -23 -11
0 -18 -2 -25 -13 -45 -9 -18 -9 -19 8 -5 16 14 17 13 11 -7 -4 -12 -2 -24 3
-28 7 -4 9 5 7 24 -2 21 1 31 10 31 8 0 14 7 14 15 0 21 31 55 44 48 6 -3 1 5
-11 19 -27 28 -29 46 -8 54 8 4 15 11 15 18 0 8 19 10 64 6 92 -8 106 -26 106
-136 0 -74 2 -83 20 -89 11 -3 20 -10 20 -15 0 -6 14 -8 30 -6 17 2 33 0 36
-5 3 -5 10 -9 15 -9 26 0 -22 29 -52 32 l-34 3 -2 65 c-1 36 -2 80 -2 98 -1
17 -6 32 -12 32 -6 0 -8 -9 -4 -22 5 -21 5 -21 -5 -5 -10 15 -8 22 8 37 28 26
203 28 224 3 8 -10 15 -56 19 -117 3 -56 6 -82 7 -58 1 26 6 41 12 37 6 -3 8
-17 6 -30 -4 -19 -1 -22 12 -18 15 6 15 5 3 -10 -12 -15 -12 -17 4 -11 14 6
16 4 10 -7 -6 -11 -5 -11 5 -2 9 9 20 7 45 -7 29 -16 35 -17 45 -4 8 9 9 14 2
14 -6 0 -12 -4 -14 -9 -1 -5 -22 4 -46 20 -23 16 -47 29 -53 29 -6 0 -8 4 -5
9 4 5 1 22 -4 37 -14 35 3 86 38 119 38 35 119 35 159 1 l28 -24 -21 -24 c-25
-27 -21 -48 9 -47 22 0 22 0 0 9 -13 5 -23 12 -23 16 0 3 7 4 14 1 11 -4 13
-1 9 11 -3 9 -3 14 2 10 4 -4 14 0 21 10 18 23 17 33 -2 25 -10 -4 -17 1 -21
16 -3 11 -9 21 -12 21 -12 0 -9 34 2 42 6 3 -5 6 -24 5 -22 -1 -34 -7 -34 -16
0 -10 -13 -15 -43 -17 -25 -1 -52 -10 -63 -20 -10 -9 -19 -12 -19 -6 0 6 8 17
18 24 10 7 22 19 26 26 6 10 2 10 -18 1 -25 -12 -42 -41 -32 -57 2 -4 0 -14
-5 -22 -7 -12 -10 -11 -15 7 -4 15 -11 20 -22 16 -12 -5 -14 -2 -9 11 4 10 7
23 7 30 0 24 58 46 137 52 54 4 87 12 106 26 21 14 51 21 117 25 l89 5 4 -49
3 -48 2 48 c2 39 5 47 21 47 15 0 20 -9 23 -45 3 -40 1 -44 -16 -39 -16 5 -17
4 -5 -8 27 -30 34 -16 31 59 l-4 73 40 0 c34 0 41 4 45 22 l4 23 2 -22 c0 -13
6 -23 12 -23 14 0 2 -72 -13 -81 -5 -4 -3 -9 6 -12 12 -5 16 0 16 24 0 22 4
30 13 26 10 -4 13 2 9 19 -2 13 -8 24 -13 24 -5 0 -9 9 -9 20 0 11 5 20 10 20
6 0 10 -7 10 -15 0 -20 16 -19 24 2 6 14 9 15 15 4 7 -11 14 -11 40 0 28 12 0
15 -251 19 l-283 5 333 3 c332 2 338 3 333 34 0 4 10 10 24 14 20 5 25 13 28
52 4 42 4 41 4 -10 0 -32 -4 -58 -9 -58 -4 0 -8 -7 -8 -15 0 -8 -5 -15 -11
-15 -5 0 -7 -5 -3 -12 5 -8 11 -5 17 10 8 18 18 22 54 22 36 0 43 3 43 20 0
19 7 20 120 20 113 0 120 1 120 20 0 17 7 20 40 20 33 0 40 3 40 20 0 18 7 20
80 20 73 0 80 2 80 20 0 18 7 20 80 20 73 0 80 2 80 20 0 18 7 20 80 20 73 0
80 2 80 20 0 19 7 20 120 20 113 0 120 1 120 20 0 16 7 20 35 20 l35 0 0 3760
0 3760 -621 0 -621 -1 -88 -59 c-78 -53 -90 -58 -101 -43 -11 13 -9 19 14 39
23 20 26 27 17 44 -12 23 -23 25 -53 9 -16 -9 -22 -9 -25 0 -2 7 -39 11 -109
11 l-105 0 4 -60 c2 -33 1 -55 -4 -48 -4 7 -8 29 -8 48 0 54 -10 62 -71 58
-30 -2 -53 -7 -51 -13 2 -5 -5 -12 -15 -16 -12 -5 -6 -8 20 -8 25 -1 37 -6 37
-16 0 -8 -6 -12 -14 -9 -8 3 -38 1 -67 -4 -39 -7 -56 -7 -61 1 -9 14 10 27 29
20 7 -3 13 0 13 7 0 8 -9 10 -25 6 -18 -5 -31 -1 -43 10 -16 16 -14 17 26 11
26 -5 42 -3 42 3 0 6 -58 10 -157 10 l-158 0 -1 -62 c0 -69 -19 -148 -34 -148
-6 0 -10 9 -10 20 0 33 -36 7 -50 -36 -12 -35 -11 -61 8 -184 l7 -46 63 -2
c37 -1 82 -10 107 -21 l44 -20 -6 32 c-3 18 -14 47 -25 65 -19 30 -23 32 -81
34 l-62 1 70 7 c62 6 76 4 117 -17 26 -12 50 -23 52 -23 12 0 -23 102 -38 112
-6 4 -33 8 -61 9 l-50 1 65 10 c62 9 65 8 108 -22 24 -17 46 -29 48 -27 2 2
-2 23 -10 45 -9 23 -12 42 -9 42 3 0 -2 9 -11 19 -14 15 -30 19 -67 18 -71 -3
-60 11 12 15 64 3 73 1 75 -19 3 -40 5 -44 16 -37 7 4 8 3 4 -4 -8 -13 17 -56
27 -46 3 3 3 -4 0 -17 -5 -17 -3 -20 7 -14 10 6 12 4 7 -9 -5 -14 -3 -15 12
-6 37 19 30 -16 -12 -69 -37 -45 -141 -125 -219 -166 -26 -14 -27 -14 -54 33
-34 59 -38 62 -96 62 -39 0 -48 -3 -48 -17 0 -10 -3 -35 -6 -55 l-6 -37 38 4
c44 4 114 -11 114 -25 0 -5 -13 -16 -29 -25 -28 -14 -31 -14 -45 7 -15 21 -32
25 -110 27 -28 1 -28 2 -12 20 22 24 40 145 33 226 -4 60 -55 205 -72 208 -5
1 -52 -52 -105 -117 -85 -105 -96 -124 -95 -155 2 -19 7 -37 13 -39 6 -2 8
-10 5 -18 -3 -8 0 -14 5 -14 6 0 14 -9 17 -20 9 -29 22 -24 30 11 6 26 10 30
37 27 48 -5 58 -31 25 -64 -15 -15 -27 -31 -27 -36 0 -5 -4 -7 -9 -4 -5 3 -12
-6 -16 -21 l-6 -26 -45 44 c-69 67 -88 97 -74 114 10 12 9 15 -4 15 -10 0 -14
-4 -11 -10 3 -5 0 -10 -7 -11 -10 0 -145 -159 -225 -265 -11 -15 -15 -14 -43
6 l-30 22 30 38 c29 37 42 66 18 42 -7 -7 -17 -12 -22 -12 -6 0 -5 5 2 12 17
17 15 29 -3 22 -8 -4 -15 -2 -15 4 0 6 -13 13 -29 17 -40 9 -56 28 -36 45 12
10 18 10 30 0 19 -16 34 -5 17 12 -18 18 -14 32 4 17 12 -9 17 -10 23 -1 5 8
19 6 49 -9 23 -12 42 -25 42 -30 0 -16 15 -9 29 14 10 17 11 19 0 10 -17 -17
-37 -17 -21 -1 14 14 16 32 3 24 -6 -4 -31 34 -31 48 0 2 19 7 42 12 24 4 48
9 53 10 6 1 24 3 40 4 17 1 23 4 13 7 -9 2 -23 17 -30 33 -7 16 -16 26 -20 24
-4 -3 -8 -1 -8 4 0 16 -176 222 -189 222 -7 0 -52 -86 -72 -140 -19 -47 -19
-272 -2 -277 7 -3 13 -12 13 -20 0 -8 11 -37 25 -64 13 -27 22 -49 19 -49 -6
0 -206 133 -226 149 -7 7 -22 18 -33 27 l-20 15 20 -2 c49 -3 65 1 65 20 0 26
-72 71 -114 71 -66 0 -92 10 -103 41 -11 29 -11 29 24 29 35 0 36 0 18 20 -13
15 -14 20 -5 20 11 0 11 3 2 12 -21 21 -13 28 32 28 42 0 46 2 57 35 8 21 21
36 33 38 12 2 -27 5 -86 6 -87 1 -108 4 -108 15 0 8 5 18 10 21 6 3 10 12 10
19 0 24 -50 5 -65 -24 -15 -30 -39 -40 -98 -40 -26 0 -37 -4 -35 -12 5 -15 88
-41 88 -28 0 5 7 7 15 4 8 -4 15 -1 15 6 0 7 5 6 15 -4 24 -23 19 -30 -43 -51
l-58 -21 -68 44 c-52 34 -67 48 -63 62 7 28 -29 55 -72 54 -55 -2 -147 62
-144 100 l2 26 -162 0 c-89 0 -157 -4 -151 -9 10 -9 219 -150 864 -583 217
-146 445 -299 505 -341 61 -42 135 -93 165 -114 30 -21 64 -39 75 -40 13 -2
16 0 8 5 -9 5 61 57 205 152 119 80 222 148 227 153 9 7 142 96 265 177 25 16
51 30 58 30 6 0 12 4 12 9 0 13 132 96 148 93 7 -2 11 1 10 7 -2 5 6 16 16 24
18 13 22 12 37 -7 10 -11 20 -18 24 -14 4 4 0 14 -9 23 -9 9 -16 18 -16 20 0
4 95 65 102 65 3 0 15 -9 28 -20 17 -15 19 -20 8 -20 -9 0 -19 7 -22 16 -5 13
-11 13 -45 -7 -33 -18 -39 -26 -36 -50 2 -16 -2 -33 -11 -39 -10 -9 -14 -9
-14 -1 0 7 -10 9 -27 5 -41 -10 -45 -14 -32 -30 6 -8 9 -17 5 -21 -3 -3 -6 -2
-6 4 0 26 -44 21 -91 -10 -27 -17 -46 -33 -44 -35 2 -3 16 3 30 12 16 10 25
12 25 5 0 -6 9 -9 20 -6 11 3 20 1 20 -5 0 -5 -15 -8 -32 -6 -32 3 -33 2 -36
-39 -4 -50 -22 -56 -59 -21 -21 19 -25 20 -49 8 -14 -8 -21 -16 -15 -18 7 -2
18 1 26 8 10 9 18 7 34 -7 27 -23 27 -26 -10 -63 -22 -21 -38 -29 -53 -25 -11
2 -15 2 -8 -1 6 -3 12 -23 12 -46 l0 -40 -44 3 c-31 3 -42 1 -39 -8 6 -14 -18
-73 -29 -73 -5 0 -8 -18 -8 -40 0 -33 -3 -40 -20 -40 -17 0 -20 -7 -20 -40 0
-33 -3 -40 -20 -40 -17 0 -20 -7 -20 -39 0 -33 -4 -40 -22 -43 -14 -2 -31 -17
-43 -40 -11 -22 -28 -38 -37 -38 -14 0 -18 -9 -18 -40 0 -33 -3 -40 -20 -40
-17 0 -20 -7 -20 -40 0 -33 -3 -40 -20 -40 -17 0 -20 -7 -20 -40 l0 -40 -40 0
c-29 0 -40 -4 -40 -15 0 -16 -20 -56 -32 -65 -3 -3 -8 -23 -10 -45 -2 -32 -7
-39 -20 -37 -10 2 -18 -3 -18 -11 0 -8 -18 -20 -40 -27 -22 -7 -40 -19 -40
-26 0 -16 31 -26 56 -18 18 5 18 5 1 -6 -10 -7 -27 -10 -38 -7 -13 3 -18 0
-17 -12 3 -45 -2 -63 -18 -57 -23 9 -58 -32 -43 -50 8 -9 4 -17 -16 -30 -14
-9 -28 -14 -31 -11 -3 3 4 10 15 17 12 6 19 15 16 21 -4 5 -13 3 -21 -6 -19
-19 -28 -19 -44 0 -7 8 -16 15 -21 15 -4 0 -95 58 -201 129 -106 70 -418 278
-693 461 -458 305 -975 652 -1584 1062 l-235 158 -100 -1 c-98 0 -100 -1 -76
-17 98 -67 318 -226 330 -238 9 -9 10 -14 3 -14 -7 0 -15 5 -18 10 -10 17 -25
11 -18 -7 4 -11 3 -14 -6 -9 -7 5 -9 16 -5 29 6 20 5 20 -10 8 -15 -12 -19
-12 -34 2 -15 16 -15 17 1 17 11 0 15 -4 11 -12 -4 -7 -3 -8 5 -4 6 4 9 12 6
17 -9 13 -49 11 -63 -3 -16 -16 -16 4 1 21 10 11 8 12 -9 3 -15 -8 -28 -7 -48
4 -16 7 -39 12 -53 10 -38 -7 -56 3 -41 22 11 13 10 15 -5 9 -19 -7 -37 1
-101 46 -21 15 -44 27 -50 27 -6 -1 1 -8 17 -16 15 -8 27 -19 27 -25 0 -11 -6
-8 -69 34 -33 23 -40 32 -30 39 11 7 9 8 -4 4 -23 -8 -44 3 -27 14 8 5 7 9 -5
13 -9 4 -13 3 -10 -3 9 -15 -7 -12 -29 5 -17 13 -92 15 -488 15 l-468 0 0
-4380z m5755 4360 c-3 -5 -16 -15 -28 -21 -19 -9 -19 -8 3 10 28 23 34 26 25
11z m-568 -52 c-3 -7 -5 -2 -5 12 0 14 2 19 5 13 2 -7 2 -19 0 -25z m563 18
c0 -3 -4 -8 -10 -11 -5 -3 -10 -1 -10 4 0 6 5 11 10 11 6 0 10 -2 10 -4z m11
-19 c-10 -9 -11 -8 -5 6 3 10 9 15 12 12 3 -3 0 -11 -7 -18z m-46 3 c3 -6 -1
-7 -9 -4 -18 7 -21 14 -7 14 6 0 13 -4 16 -10z m-5115 -72 c11 -24 20 -53 20
-66 0 -20 2 -21 22 -11 29 16 105 22 113 9 11 -17 -25 -71 -63 -93 -31 -18
-33 -22 -17 -25 35 -7 85 -67 85 -102 0 -15 -77 -12 -110 5 -29 15 -30 15 -30
-9 0 -29 -25 -92 -41 -102 -23 -14 -59 43 -59 93 0 46 0 46 -20 28 -25 -23
-130 -35 -130 -15 0 25 41 78 72 93 l31 15 -31 16 c-33 17 -77 80 -67 96 9 15
85 10 112 -6 31 -19 33 -18 33 21 0 44 25 95 46 95 8 0 24 -19 34 -42z m4329
10 c0 -30 -1 -31 -9 -10 -8 19 -17 22 -65 22 -30 0 -55 5 -55 10 0 6 28 10 65
10 l65 0 -1 -32z m676 12 c-3 -5 -16 -15 -28 -21 -19 -9 -19 -8 3 10 28 23 34
26 25 11z m40 -10 c3 -5 1 -10 -4 -10 -6 0 -11 5 -11 10 0 6 2 10 4 10 3 0 8
-4 11 -10z m-4484 -17 c13 -16 12 -17 -3 -4 -17 13 -22 21 -14 21 2 0 10 -8
17 -17z m3776 -45 c-3 -8 -6 -5 -6 6 -1 11 2 17 5 13 3 -3 4 -12 1 -19z
m-1527 2 c0 -5 -4 -10 -10 -10 -5 0 -10 5 -10 10 0 6 5 10 10 10 6 0 10 -4 10
-10z m-2150 -21 c17 -13 18 -17 5 -10 -33 17 -51 31 -40 31 6 0 21 -10 35 -21z
m4255 11 c4 -6 -1 -7 -12 -3 -16 6 -16 5 -4 -10 7 -10 9 -17 3 -17 -6 0 -12 6
-15 13 -2 8 -8 9 -18 2 -8 -5 -6 -2 4 8 22 19 33 21 42 7z m81 -9 c0 -11 -5
-17 -13 -14 -17 6 -17 20 0 26 6 3 12 6 12 6 1 1 1 -7 1 -18z m-637 -43 c1 -5
-3 -8 -9 -8 -5 0 -10 12 -9 28 0 24 1 25 9 7 5 -11 9 -23 9 -27z m441 -13 c-9
-10 -9 -15 -1 -15 16 0 14 -17 -3 -23 -10 -4 -13 -1 -9 9 3 7 0 14 -5 14 -6 0
-14 -10 -17 -21 -5 -16 -9 -18 -15 -9 -4 7 -13 9 -19 6 -17 -11 -13 -26 7 -27
9 0 12 -3 6 -5 -6 -3 -20 -1 -32 3 -19 7 -16 11 31 45 55 39 78 48 57 23z
m-3824 -33 c-4 -3 -14 2 -24 12 -16 18 -16 18 6 6 13 -6 21 -14 18 -18z m3858
-2 c-6 -6 -10 -3 -10 10 0 13 4 16 10 10 7 -7 7 -13 0 -20z m-2079 8 c14 -6
25 -15 25 -20 0 -11 -62 -10 -80 2 -13 9 -13 11 0 20 19 12 24 12 55 -2z
m-1710 -46 c11 -6 15 -12 8 -12 -7 0 -22 10 -35 23 -13 12 -17 17 -8 11 8 -6
24 -16 35 -22z m3685 -22 c8 -5 11 -10 5 -10 -5 0 -17 5 -25 10 -8 5 -10 10
-5 10 6 0 17 -5 25 -10z m25 -29 c-3 -6 -11 -11 -16 -11 -5 0 -4 6 3 14 14 16
24 13 13 -3z m-95 -1 c-8 -5 -19 -10 -25 -10 -5 0 -3 5 5 10 8 5 20 10 25 10
6 0 3 -5 -5 -10z m-160 -136 c0 -2 -7 -4 -15 -4 -8 0 -15 4 -15 10 0 5 7 7 15
4 8 -4 15 -8 15 -10z m15 -23 c-3 -6 -11 -11 -17 -11 -6 0 -6 6 2 15 14 17 26
13 15 -4z m-4582 -39 c-3 -12 26 -17 83 -13 18 1 35 -3 39 -9 5 -8 11 -8 21 1
8 7 30 9 54 6 30 -4 40 -2 40 9 0 19 28 18 47 -2 13 -13 14 -20 5 -35 -7 -11
-8 -20 -2 -24 13 -8 13 -45 -1 -45 -6 0 -19 5 -29 10 -13 7 -21 7 -25 0 -14
-22 -35 -10 -35 20 0 17 -5 30 -11 30 -6 0 -8 -8 -5 -17 10 -32 -7 -40 -86
-40 l-78 0 0 29 c0 18 -4 27 -10 23 -6 -4 -10 -16 -8 -28 3 -19 -2 -22 -34
-24 -36 -2 -38 -1 -38 28 0 37 -24 35 -28 -3 -3 -24 -7 -25 -58 -27 -48 -1
-56 2 -63 22 -5 12 -6 27 -3 32 4 6 7 17 7 25 0 20 42 25 62 8 13 -10 17 -10
20 0 3 6 18 12 34 12 19 0 29 5 29 15 0 10 10 14 38 12 23 -2 36 -7 35 -15z
m3917 -40 c0 -5 -7 -17 -15 -28 -15 -19 -20 -8 -9 20 6 17 24 22 24 8z m1910
-17 c-7 -8 -17 -15 -23 -15 -6 0 -2 7 9 15 25 19 30 19 14 0z m-390 1 c0 -2
-7 -7 -16 -10 -8 -3 -12 -2 -9 4 6 10 25 14 25 6z m280 -11 c0 -3 -18 -17 -41
-32 -35 -23 -38 -28 -23 -36 11 -7 23 -6 35 2 21 13 32 14 26 4 -7 -12 81 -7
95 4 24 18 38 24 38 16 0 -11 -111 -86 -127 -86 -7 0 -11 -4 -10 -8 1 -4 -53
-46 -120 -93 l-122 -87 -117 3 -117 3 143 95 c125 83 197 126 150 90 -13 -10
-13 -11 0 -7 8 2 15 9 15 15 0 6 38 36 85 67 89 57 90 58 90 50z m140 -4 c0
-5 -7 -12 -16 -15 -14 -5 -15 -4 -4 9 14 17 20 19 20 6z m30 -15 c0 -2 -7 -7
-16 -10 -8 -3 -12 -2 -9 4 6 10 25 14 25 6z m-154 -26 c8 0 14 5 14 10 0 6 5
10 12 10 8 0 6 -6 -4 -16 -18 -18 -48 -13 -47 8 0 10 2 10 6 1 2 -7 11 -13 19
-13z m-1776 -2 c0 -5 -25 -8 -55 -8 -30 0 -55 4 -55 8 0 5 25 8 55 8 30 -1 55
-4 55 -8z m1730 -8 c-24 -15 -36 -11 -14 4 10 8 21 12 24 10 2 -3 -2 -9 -10
-14z m-1840 -25 c0 -8 -4 -15 -8 -15 -4 0 -28 -20 -53 -45 -25 -25 -70 -62
-100 -84 l-54 -39 -45 32 -45 31 66 6 c79 8 130 33 184 88 42 44 55 50 55 26z
m1210 -159 c0 -2 -7 -7 -16 -10 -8 -3 -12 -2 -9 4 6 10 25 14 25 6z m-90 -56
c0 -5 -13 -16 -29 -25 -27 -13 -29 -13 -26 3 1 11 10 16 24 15 11 -2 21 2 21
7 0 6 2 10 5 10 3 0 5 -4 5 -10z m-85 -60 c-3 -5 -12 -10 -18 -10 -7 0 -6 4 3
10 19 12 23 12 15 0z m-75 -54 c0 -2 -7 -7 -16 -10 -8 -3 -12 -2 -9 4 6 10 25
14 25 6z m-80 -46 c0 -5 -10 -14 -21 -21 -17 -8 -20 -8 -14 1 5 9 1 10 -16 5
-18 -5 -21 -4 -9 4 8 6 23 8 33 5 9 -3 17 -1 17 5 0 6 2 11 5 11 3 0 5 -4 5
-10z m-85 -60 c-3 -5 -12 -10 -18 -10 -7 0 -6 4 3 10 19 12 23 12 15 0z m-105
-44 c0 -2 -7 -7 -16 -10 -8 -3 -12 -2 -9 4 6 10 25 14 25 6z m7 -21 c-15 -14
-35 -25 -43 -25 -8 0 -14 -4 -14 -9 0 -5 -16 -18 -35 -30 -19 -11 -35 -16 -35
-11 0 6 5 10 11 10 5 0 7 4 4 10 -3 5 0 7 8 5 7 -3 22 3 32 15 10 11 24 20 30
20 7 0 23 9 36 20 35 28 39 24 6 -5z m-239 -160 c-20 -14 -40 -25 -45 -25 -11
0 60 49 72 50 5 0 -7 -11 -27 -25z m-58 -33 c0 -15 -41 -33 -56 -24 -15 8 -15
10 0 15 10 4 15 3 11 -3 -10 -16 11 -12 25 5 14 17 20 19 20 7z m-110 -16 c0
-2 -7 -7 -16 -10 -8 -3 -12 -2 -9 4 6 10 25 14 25 6z m49 -29 c-2 -2 -21 -15
-42 -31 -52 -38 -57 -28 -5 12 23 18 44 30 46 27 3 -3 3 -6 1 -8z m-174 -57
c-27 -12 -43 -12 -25 0 8 5 22 9 30 9 10 0 8 -3 -5 -9z m29 -15 c-22 -17 -34
-19 -34 -6 0 5 8 12 18 14 32 9 36 7 16 -8z m37 2 c-6 -8 -31 -24 -56 -37 -36
-19 -48 -21 -58 -11 -9 10 -8 11 7 5 10 -4 21 -3 25 2 5 7 76 49 90 53 2 1 -2
-5 -8 -12z m-101 -17 c0 -5 -2 -10 -4 -10 -3 0 -8 5 -11 10 -3 6 -1 10 4 10 6
0 11 -4 11 -10z m-13 -48 c9 -6 3 -14 -19 -26 -17 -11 -28 -14 -24 -7 4 6 0
11 -9 11 -10 0 -15 -6 -12 -12 3 -8 -5 -14 -19 -14 -13 -1 -24 2 -24 8 0 5 4
7 9 4 5 -3 15 2 22 11 12 15 12 16 -6 9 -16 -6 -17 -5 -8 5 10 10 18 10 38 1
15 -7 31 -9 38 -5 7 4 4 9 -9 14 -13 5 -14 8 -4 8 8 0 21 -3 27 -7z m-140 -48
c-9 -9 -28 6 -21 18 4 6 10 6 17 -1 6 -6 8 -13 4 -17z m-4 -36 c4 -10 8 -9 16
2 5 8 13 12 16 8 8 -8 -58 -58 -76 -58 -8 0 -10 3 -4 8 6 4 10 13 11 20 2 28
5 32 18 32 8 0 17 -6 19 -12z m-79 -43 c-18 -14 -18 -14 5 -15 24 0 24 0 5
-15 -10 -8 -26 -14 -34 -14 -10 0 -11 2 -2 6 6 2 9 9 6 14 -9 16 4 39 23 39
15 0 15 -2 -3 -15z m-39 -54 c3 -5 -4 -13 -16 -16 -23 -8 -34 -1 -24 14 8 13
32 14 40 2z m-1681 -210 c20 -4 32 -14 37 -31 4 -14 27 -83 52 -153 l45 -128
80 153 80 153 54 9 c62 10 168 0 168 -16 0 -6 -46 -90 -102 -187 -214 -372
-190 -316 -208 -486 l-15 -150 -108 -3 -109 -3 6 48 c3 26 8 98 11 158 6 113
1 139 -55 260 -19 40 -140 356 -140 365 0 16 143 24 204 11z m2988 3 c35 -6
36 -8 26 -33 -27 -67 -49 -127 -53 -141 -2 -8 -16 -46 -32 -85 l-28 -70 -85
-3 c-47 -1 -90 1 -97 6 -8 5 -6 23 9 67 12 33 36 103 53 155 26 78 36 96 56
101 32 9 105 10 151 3z m-4162 -137 c0 -34 -6 -116 -14 -182 -8 -66 -17 -168
-20 -227 l-7 -108 70 0 69 0 6 -33 c3 -18 2 -54 -3 -80 -4 -26 -6 -47 -3 -47
2 0 -1 -7 -8 -15 -10 -13 -52 -15 -262 -15 l-251 0 5 83 c2 45 8 88 12 95 4 8
34 12 80 12 l73 0 12 133 c7 72 15 140 17 150 3 16 -1 17 -29 11 -18 -3 -44
-13 -59 -20 -15 -8 -30 -14 -33 -14 -8 0 -51 98 -59 136 -7 30 -5 32 52 57 33
15 77 33 99 41 38 14 108 43 168 71 17 7 42 14 58 14 27 1 27 0 27 -62z m622
58 c2 -3 1 -33 -3 -67 -5 -35 -11 -106 -14 -158 -3 -52 -12 -149 -20 -215 -8
-66 -15 -123 -15 -127 0 -4 34 -8 75 -8 53 0 75 -4 76 -12 0 -7 2 -22 5 -33 2
-11 -1 -48 -7 -83 l-11 -62 -257 2 -256 3 2 65 c1 36 6 77 12 93 10 26 13 27
86 27 l75 0 1 38 c2 53 5 103 13 188 7 81 7 82 -55 56 -54 -22 -63 -19 -85 28
-12 25 -24 63 -25 85 -4 39 -3 39 44 57 27 10 68 27 92 38 23 11 68 29 100 41
31 11 69 27 83 35 26 14 74 19 84 9z m1323 -161 c78 -30 136 -124 137 -221 1
-32 -2 -77 -6 -100 l-8 -43 -174 0 c-96 0 -174 -3 -174 -6 0 -10 23 -49 34
-57 18 -12 168 -5 203 9 29 13 33 12 42 -4 10 -19 27 -105 26 -136 0 -34 -65
-49 -216 -50 -134 -1 -136 -1 -185 29 -30 19 -60 49 -79 79 -29 47 -30 54 -29
160 0 104 2 115 32 178 44 90 133 163 212 171 16 2 32 6 35 8 6 7 125 -7 150
-17z m572 -8 c38 -18 58 -35 77 -68 36 -62 40 -106 22 -260 -9 -75 -16 -159
-16 -187 l0 -49 -52 -18 c-40 -14 -85 -18 -188 -19 -128 0 -138 1 -186 27 -69
37 -88 76 -82 173 4 54 11 81 27 104 43 60 148 101 261 101 54 0 61 7 30 35
-16 15 -32 17 -102 12 -46 -3 -93 -8 -105 -12 -19 -6 -23 -2 -33 32 -6 21 -10
56 -8 78 3 38 5 40 58 57 35 11 90 17 150 17 80 1 103 -3 147 -23z m608 -6
c68 -35 98 -91 92 -171 -5 -59 -25 -107 -58 -140 -24 -24 -23 -27 37 -162 24
-53 44 -101 44 -106 0 -15 -14 -16 -122 -11 -122 6 -102 -18 -191 223 -21 58
-21 59 -2 70 44 24 75 65 75 99 0 42 -15 58 -56 58 l-32 0 -6 -67 c-3 -38 -9
-102 -11 -143 -6 -81 -25 -233 -30 -238 -6 -6 -181 -6 -191 0 -7 5 -7 39 2
116 7 59 15 144 18 188 4 43 11 129 18 191 l11 112 31 4 c17 3 96 4 176 3 135
-1 149 -3 195 -26z m638 7 c20 -9 37 -21 37 -26 0 -16 -39 -116 -53 -134 -11
-16 -15 -16 -58 -2 -57 20 -154 17 -154 -4 0 -9 32 -23 87 -40 118 -35 150
-66 156 -149 8 -105 -30 -172 -122 -220 -46 -24 -63 -26 -171 -28 -87 -2 -133
2 -167 13 l-46 15 15 52 c8 28 22 66 30 84 14 29 20 33 42 27 95 -24 141 -28
181 -16 56 17 41 32 -57 63 -45 14 -90 35 -111 54 -35 30 -37 34 -40 105 -3
68 -1 78 26 120 23 35 45 54 93 79 62 31 67 32 169 27 65 -2 119 -10 143 -20z
m367 -802 l0 -25 -2270 0 -2270 0 0 25 0 25 2270 0 2270 0 0 -25z m-3989 -215
c41 -13 69 -26 69 -34 0 -8 -9 -44 -21 -81 -18 -61 -22 -66 -42 -60 -172 53
-273 43 -297 -29 -21 -66 24 -113 146 -152 76 -24 164 -76 196 -115 15 -19 35
-63 44 -99 14 -55 15 -74 5 -125 -7 -32 -20 -73 -28 -90 -24 -48 -89 -104
-151 -132 -51 -23 -71 -26 -184 -28 -105 -1 -138 2 -195 20 -67 21 -68 22 -68
56 0 35 22 117 35 133 5 4 32 0 62 -10 75 -25 202 -27 249 -4 50 26 62 45 62
96 0 63 -24 83 -156 134 -94 37 -120 52 -163 94 -66 65 -83 130 -64 233 17 86
56 138 139 180 60 32 67 33 178 33 88 0 133 -5 184 -20z m794 -13 c99 -48 164
-127 200 -247 23 -74 28 -301 9 -372 -35 -136 -112 -235 -222 -286 -52 -24
-67 -27 -173 -26 -102 1 -123 5 -172 27 -156 71 -237 228 -236 456 1 203 62
345 182 424 75 49 99 55 227 56 111 1 118 0 185 -32z m563 -359 l2 -388 166 0
165 0 -3 -87 -3 -88 -258 0 -258 0 1 470 c0 360 3 471 13 477 6 5 48 7 92 6
l80 -3 3 -387z m455 380 c9 -7 25 -47 36 -89 11 -41 25 -88 30 -102 6 -15 9
-27 6 -27 -2 0 5 -25 15 -55 10 -30 17 -55 15 -55 -3 0 2 -17 10 -37 8 -21 16
-47 18 -58 3 -18 18 -72 47 -170 5 -16 11 -42 14 -57 9 -52 19 -54 32 -8 6 25
21 79 33 120 12 41 32 116 46 165 13 50 29 106 35 125 6 19 13 42 15 50 2 8
13 50 24 92 12 43 21 80 21 82 0 3 7 12 16 20 20 20 176 23 192 4 7 -9 -3 -54
-34 -148 -24 -74 -64 -198 -89 -275 -25 -77 -66 -203 -91 -280 -25 -77 -47
-147 -49 -156 -2 -8 -10 -32 -19 -52 l-15 -37 -110 0 -109 0 -7 32 c-4 17 -24
83 -45 147 -21 64 -68 211 -105 326 -37 116 -80 251 -97 300 -38 117 -42 136
-26 146 21 14 172 11 191 -3z m1855 -9 c195 -66 289 -204 299 -439 9 -224 -62
-370 -221 -452 -21 -11 -46 -21 -55 -24 -9 -2 -37 -10 -62 -17 -43 -11 -142
-14 -341 -9 l-78 2 0 474 c0 370 3 475 13 479 6 3 96 6 198 6 162 1 193 -2
247 -20z m-603 -21 c3 -18 4 -55 2 -83 l-3 -50 -172 -3 -172 -2 0 -95 0 -95
134 0 c152 0 146 4 146 -92 0 -80 5 -78 -146 -78 l-134 0 0 -120 0 -120 174 0
173 0 5 -45 c3 -25 3 -65 0 -90 l-5 -45 -273 0 -274 0 0 475 0 475 270 0 269
0 6 -32z m-3098 -1099 c88 -29 149 -85 182 -167 20 -53 23 -73 19 -159 -5
-113 -29 -174 -93 -231 -61 -56 -117 -75 -232 -80 l-103 -4 0 -148 c0 -126 -2
-149 -16 -154 -20 -8 -142 -8 -172 0 l-22 6 6 477 5 476 47 5 c26 3 107 4 179
3 108 -1 146 -6 200 -24z m1519 2 c71 -25 133 -80 168 -149 20 -40 24 -63 25
-159 2 -101 0 -116 -23 -161 -56 -111 -167 -172 -311 -172 l-85 0 0 -149 c0
-146 0 -149 -22 -155 -30 -7 -136 -7 -165 0 l-23 6 0 479 0 478 48 4 c26 3
110 3 187 2 113 -2 152 -7 201 -24z m1456 -3 c85 -32 130 -66 165 -126 25 -42
28 -56 28 -142 0 -82 -4 -102 -25 -144 -14 -27 -46 -67 -72 -90 l-46 -41 57
-100 c32 -55 83 -143 113 -195 l55 -95 -36 -7 c-52 -10 -146 -9 -173 1 -22 8
-111 154 -221 361 -16 30 -34 61 -40 68 -12 16 -4 23 58 52 77 36 117 96 117
173 -1 85 -60 137 -154 137 l-48 0 0 -394 0 -394 -22 -6 c-30 -8 -142 -8 -162
0 -14 5 -16 57 -16 480 l0 474 23 5 c52 11 89 13 207 10 104 -2 136 -7 192
-27z m856 3 c58 -18 72 -26 68 -39 -2 -9 -8 -32 -11 -51 -4 -19 -13 -49 -21
-67 l-14 -32 -47 18 c-59 21 -156 32 -203 22 -44 -10 -83 -62 -74 -101 9 -37
41 -68 83 -82 20 -6 41 -15 47 -20 6 -5 19 -10 30 -12 50 -8 147 -63 183 -103
21 -24 40 -42 42 -39 4 4 5 1 15 -121 9 -109 -9 -164 -74 -225 -63 -62 -105
-84 -186 -99 -60 -11 -212 -10 -266 3 -53 12 -103 33 -107 44 -6 15 25 153 37
166 4 5 22 1 39 -7 17 -9 31 -15 31 -12 0 2 21 -2 47 -10 57 -17 115 -18 171
-1 56 17 79 38 88 82 13 71 -26 113 -149 159 -179 67 -233 121 -244 245 -13
143 69 256 215 297 68 18 212 11 300 -15z m-3153 13 c15 -4 26 -25 43 -82 33
-106 48 -155 76 -242 13 -41 40 -129 61 -195 20 -66 42 -138 50 -160 25 -72
79 -250 80 -260 1 -17 -27 -24 -100 -24 -104 -1 -109 2 -129 67 -9 31 -21 73
-27 92 l-11 35 -148 0 -149 0 -10 -40 c-24 -97 -38 -137 -52 -146 -8 -5 -53
-9 -101 -8 -93 2 -98 4 -79 51 5 13 31 91 56 173 26 83 55 175 65 205 9 30 32
102 50 160 17 58 39 123 47 145 9 22 16 47 17 55 4 36 50 156 64 168 16 12
158 17 197 6z m1719 -20 c8 -20 8 -118 0 -138 -5 -14 -31 -16 -180 -16 l-174
0 0 -100 0 -100 139 0 139 0 7 -41 c4 -22 4 -60 0 -85 l-6 -44 -140 0 -139 0
0 -115 0 -115 178 -2 177 -3 5 -71 c8 -115 38 -104 -281 -104 l-279 0 0 475 0
475 274 0 c240 0 275 -2 280 -16z m1469 -1134 c56 -26 120 -93 141 -148 24
-62 21 -147 -8 -207 -32 -68 -77 -110 -142 -135 -55 -20 -59 -20 -2122 -18
l-2067 3 -41 22 c-54 29 -119 103 -136 156 -43 129 21 271 147 328 38 18 128
19 2113 19 2059 0 2072 0 2115 -20z m-4103 -1690 l0 -560 -160 0 -160 0 0 553
c0 305 3 557 7 560 3 4 75 7 160 7 l153 0 0 -560z m473 -2 l5 -558 -159 0
-159 0 0 560 0 561 154 -3 154 -3 5 -557z m997 417 l0 -145 -152 0 -153 0 3
-415 2 -415 -160 0 -160 0 0 415 0 415 -150 0 -150 0 0 145 0 145 460 0 460 0
0 -145z m815 -265 c0 -366 -2 -410 -18 -457 -10 -29 -15 -58 -11 -65 4 -7 4
-10 -1 -6 -4 4 -25 -19 -46 -52 -22 -32 -46 -61 -55 -64 -8 -3 -12 -11 -9 -16
4 -6 3 -9 -2 -8 -14 4 -152 -70 -145 -78 4 -4 2 -4 -5 0 -7 4 -71 7 -142 8
-72 1 -128 4 -126 8 2 3 -22 18 -53 33 -59 27 -124 80 -135 109 -3 9 1 22 11
30 11 9 14 10 8 1 -4 -7 -3 -13 3 -13 14 0 32 35 23 45 -4 3 -2 5 3 3 13 -4
75 42 75 56 0 5 -15 -3 -32 -20 l-33 -29 29 32 c16 18 32 32 35 31 20 -2 32 5
42 25 12 22 12 22 -9 4 -24 -22 -37 -8 -17 19 15 19 15 19 8 0 -5 -15 -3 -17
8 -10 20 12 49 15 49 5 0 -5 14 -18 31 -29 40 -25 110 -23 147 5 48 36 51 59
51 466 l1 378 158 -3 157 -3 0 -405z m1020 272 l0 -133 -277 1 -278 1 0 -81 0
-80 215 0 215 0 0 -125 0 -125 -215 0 -215 0 0 -90 0 -91 285 3 285 3 0 -137
c0 -100 3 -138 13 -141 6 -2 8 -8 4 -13 -5 -5 -13 -1 -18 9 -9 16 -42 17 -449
17 l-440 0 0 553 c0 305 3 557 7 560 3 4 200 6 437 5 l431 -3 0 -133z m975 1
l0 -138 -272 0 -273 0 -3 -77 -3 -78 215 0 216 0 0 -121 c0 -105 2 -120 16
-115 8 3 12 2 9 -4 -4 -6 -93 -10 -228 -10 l-222 0 0 -88 0 -87 283 -3 282 -2
0 -130 0 -130 -447 0 c-396 -1 -446 -2 -429 -15 11 -8 15 -15 9 -15 -7 0 -15
5 -18 10 -3 6 -16 10 -28 11 -20 1 -20 2 3 8 l25 7 3 557 2 557 430 0 430 0 0
-137z m-105 -273 c3 -5 1 -10 -4 -10 -6 0 -11 5 -11 10 0 6 2 10 4 10 3 0 8
-4 11 -10z m15 -224 c0 -3 -4 -8 -10 -11 -5 -3 -10 -1 -10 4 0 6 5 11 10 11 6
0 10 -2 10 -4z m1183 -3 c-13 -2 -33 -2 -45 0 -13 2 -3 4 22 4 25 0 35 -2 23
-4z m-3439 -168 c-4 -8 -11 -12 -16 -9 -6 4 -5 10 3 15 19 12 19 11 13 -6z
m1396 9 c0 -8 -19 -13 -24 -6 -3 5 1 9 9 9 8 0 15 -2 15 -3z m995 -4 c-4 -6
-1 -17 5 -25 17 -20 5 -19 -15 1 -13 14 -14 19 -3 25 17 11 20 11 13 -1z
m-2665 -16 c0 -8 -19 -13 -24 -6 -3 5 1 9 9 9 8 0 15 -2 15 -3z m1674 -9 c-4
-8 -11 -15 -16 -15 -6 0 -5 6 2 15 7 8 14 15 16 15 2 0 1 -7 -2 -15z m850 7
c6 -10 -60 -9 -70 1 -4 4 9 7 29 7 20 0 38 -4 41 -8z m-397 -28 c-3 -3 -12 -4
-19 -1 -8 3 -5 6 6 6 11 1 17 -2 13 -5z m341 -1 c-49 -2 -127 -2 -175 0 -49 1
-9 3 87 3 96 0 136 -2 88 -3z m192 -3 c0 -5 -2 -10 -4 -10 -3 0 -8 5 -11 10
-3 6 -1 10 4 10 6 0 11 -4 11 -10z m-2710 -33 c0 -2 -9 -12 -19 -21 -14 -13
-21 -14 -27 -5 -4 8 -3 10 5 5 6 -4 14 0 17 8 5 14 24 23 24 13z m2716 -44
c-11 -11 -17 4 -9 23 7 18 8 18 11 1 2 -10 1 -21 -2 -24z m-2811 -33 c3 -6 -1
-7 -9 -4 -18 7 -21 14 -7 14 6 0 13 -4 16 -10z m2812 -52 c-2 -13 -4 -3 -4 22
0 25 2 35 4 23 2 -13 2 -33 0 -45z m-2095 20 c-19 -19 -14 -32 6 -17 14 11 15
11 5 -1 -7 -8 -20 -15 -28 -16 -13 -2 -13 2 2 27 9 15 19 26 22 24 2 -3 -1
-11 -7 -17z m-718 -7 c-5 -3 -12 -10 -15 -14 -4 -4 -9 -1 -13 8 -3 9 -2 13 4
10 6 -3 10 -1 10 5 0 6 5 8 11 4 6 -3 7 -9 3 -13z m51 -50 c3 -5 2 -12 -3 -15
-5 -3 -9 1 -9 9 0 17 3 19 12 6z m95 -66 c0 -2 -6 -5 -13 -8 -8 -3 -14 1 -14
8 0 7 6 11 14 8 7 -3 13 -6 13 -8z m1723 5 c-25 -10 -26 -11 -17 -35 4 -10 9
-12 13 -6 4 6 12 7 21 1 13 -8 12 -10 -2 -10 -10 0 -18 -4 -18 -9 0 -6 13 -6
31 1 26 9 33 8 41 -6 5 -9 16 -16 23 -16 10 0 15 -10 15 -30 0 -24 -4 -30 -21
-30 -17 0 -20 5 -18 33 2 22 -1 31 -10 29 -7 -1 -10 2 -6 8 3 5 1 10 -4 10 -6
0 -11 -4 -11 -8 0 -14 -41 -7 -51 9 -7 11 -9 10 -9 -6 0 -16 -2 -17 -10 -5 -5
9 -5 17 1 21 12 7 1 39 -15 40 -18 1 27 18 49 18 18 0 18 -1 -2 -9z m-1276
-20 c1 -11 -2 -22 -8 -25 -5 -3 -6 1 -3 10 5 11 2 14 -10 9 -22 -8 -39 -41
-26 -47 6 -3 5 -4 -2 -3 -8 2 -12 13 -10 27 l4 24 -29 -25 c-31 -28 -48 -30
-78 -12 -18 11 -18 12 7 8 15 -3 32 -7 36 -10 5 -3 19 5 32 19 12 13 28 21 36
18 8 -3 14 0 14 7 0 6 4 9 9 5 5 -3 12 -1 16 5 9 14 11 13 12 -10z m-402 -52
c4 -7 0 -5 -8 5 -8 9 -21 16 -28 14 -8 -2 -11 -2 -6 0 4 3 7 14 7 26 0 23 1
21 35 -45z m-1577 27 c-3 -3 -9 2 -12 12 -6 14 -5 15 5 6 7 -7 10 -15 7 -18z
m1082 15 c0 -5 -5 -10 -11 -10 -5 0 -7 5 -4 10 3 6 8 10 11 10 2 0 4 -4 4 -10z
m2345 -12 l80 -3 -87 -5 c-47 -3 -84 -2 -81 3 2 4 -1 7 -7 7 -6 0 -8 5 -4 11
4 8 8 8 13 1 4 -6 42 -12 86 -14z m725 5 c0 -12 -3 -14 -8 -6 -4 6 -21 13 -37
16 -27 4 -27 4 8 6 29 1 37 -3 37 -16z m-3380 -26 c0 -4 -6 -2 -14 5 -8 7 -12
17 -9 22 5 8 23 -12 23 -27z m2367 17 c-3 -3 -12 -4 -19 -1 -8 3 -5 6 6 6 11
1 17 -2 13 -5z m906 -1 c-13 -2 -33 -2 -45 0 -13 2 -3 4 22 4 25 0 35 -2 23
-4z m-2433 -15 c0 14 38 11 44 -3 6 -16 -51 -12 -66 5 -11 12 -10 12 5 1 10
-8 17 -9 17 -3z m167 6 c-3 -3 -12 -4 -19 -1 -8 3 -5 6 6 6 11 1 17 -2 13 -5z
m1427 -9 c3 -9 0 -15 -8 -15 -7 0 -13 7 -13 15 0 8 4 15 8 15 4 0 9 -7 13 -15z
m-149 -5 c-27 -5 -66 -8 -85 -8 -32 1 -31 2 10 8 25 4 63 7 85 7 38 0 37 0
-10 -7z m87 -2 c-9 -9 -15 -9 -24 0 -9 9 -7 12 12 12 19 0 21 -3 12 -12z
m-322 -12 c0 -9 -30 -14 -35 -6 -4 6 3 10 14 10 12 0 21 -2 21 -4z m-726 -72
c9 -3 16 -14 16 -23 0 -11 3 -12 8 -4 5 8 18 9 42 3 34 -9 34 -9 5 -8 -16 0
-33 -1 -37 -2 -5 -1 -12 -3 -16 -4 -5 0 -16 -9 -26 -18 -10 -10 -18 -18 -19
-18 -1 0 -3 18 -3 40 -2 41 2 45 30 34z m-1674 -20 c0 -2 -7 -4 -15 -4 -8 0
-15 4 -15 10 0 5 7 7 15 4 8 -4 15 -8 15 -10z m165 6 c-3 -5 -14 -10 -23 -9
-14 0 -13 2 3 9 27 11 27 11 20 0z m59 -1 c-2 -4 4 -10 13 -12 15 -4 15 -5 2
-6 -9 0 -22 5 -28 12 -8 10 -7 14 4 14 8 0 12 -4 9 -8z m641 -13 c0 -15 -4
-21 -9 -16 -5 5 -6 16 -3 24 9 22 12 20 12 -8z m595 9 c0 -11 -29 -11 -33 -1
-4 10 1 12 14 9 10 -3 19 -7 19 -8z m345 -4 c-3 -6 -11 -11 -16 -11 -5 0 -4 6
3 14 14 16 24 13 13 -3z m65 5 c-7 -7 -13 -7 -20 0 -6 6 -3 10 10 10 13 0 16
-4 10 -10z m267 8 c-3 -3 -12 -4 -19 -1 -8 3 -5 6 6 6 11 1 17 -2 13 -5z m37
-9 c-4 -8 -8 -15 -10 -15 -2 0 -4 7 -4 15 0 8 4 15 10 15 5 0 7 -7 4 -15z
m396 5 c0 -5 -4 -10 -10 -10 -5 0 -10 5 -10 10 0 6 5 10 10 10 6 0 10 -4 10
-10z m357 -12 c-3 -8 -6 -5 -6 6 -1 11 2 17 5 13 3 -3 4 -12 1 -19z m69 -15
c-11 -11 -17 4 -9 23 7 18 8 18 11 1 2 -10 1 -21 -2 -24z m-2555 9 c-7 -2 -18
1 -23 6 -8 8 -4 9 13 5 13 -4 18 -8 10 -11z m344 8 c-3 -6 5 -10 19 -10 29 0
56 -33 49 -60 -6 -23 -36 -34 -69 -26 -20 5 -24 13 -24 41 0 19 5 35 10 35 6
0 9 3 9 8 -2 12 1 22 7 22 3 0 2 -4 -1 -10z m610 0 c13 -5 14 -9 5 -9 -8 0
-24 4 -35 9 -13 5 -14 9 -5 9 8 0 24 -4 35 -9z m-2202 -19 c33 -17 33 -22 5
-80 -15 -31 -23 -69 -25 -116 -2 -59 2 -78 24 -123 24 -47 28 -51 35 -33 4 12
13 21 20 21 8 0 9 -3 3 -8 -5 -4 -12 -16 -13 -27 -2 -11 -10 -27 -18 -36 -8
-8 -14 -21 -14 -28 0 -7 -5 -9 -11 -6 -7 5 -2 16 13 33 l23 25 -37 -22 -37
-22 -31 42 c-16 23 -36 61 -42 83 -16 55 -16 153 1 194 11 27 11 35 0 50 -13
15 -12 16 3 4 15 -12 19 -9 38 28 12 23 24 40 28 38 4 -2 19 -10 35 -17z m42
9 c3 -6 -1 -7 -9 -4 -18 7 -21 14 -7 14 6 0 13 -4 16 -10z m1142 -5 c0 -8 -4
-12 -9 -9 -5 3 -6 10 -3 15 9 13 12 11 12 -6z m930 9 c-3 -3 -12 -4 -19 -1 -8
3 -5 6 6 6 11 1 17 -2 13 -5z m170 -21 c1 -19 -1 -22 -8 -12 -8 12 -10 12 -19
-1 -5 -8 -10 -11 -10 -6 0 7 29 46 34 46 1 0 2 -12 3 -27z m387 -12 c-4 -3 -9
0 -11 7 -3 6 -9 12 -14 12 -6 0 -5 -8 1 -20 6 -11 8 -20 6 -20 -3 0 -10 9 -16
20 -16 30 -2 45 21 24 11 -9 16 -20 13 -23z m279 32 c-7 -2 -19 -2 -25 0 -7 3
-2 5 12 5 14 0 19 -2 13 -5z m717 -20 c0 -22 -2 -25 -10 -13 -13 20 -13 40 0
40 6 0 10 -12 10 -27z m-3734 5 c4 -7 3 -8 -4 -4 -7 4 -12 2 -12 -5 0 -7 -3
-10 -6 -6 -6 5 3 27 11 27 2 0 7 -5 11 -12z m1154 0 c0 -7 -5 -20 -11 -28 -8
-12 -9 -10 -4 9 5 17 4 22 -5 16 -9 -5 -11 -4 -6 3 10 16 26 15 26 0z m990 2
c0 -4 -6 -12 -13 -18 -10 -8 -13 -6 -13 7 0 10 6 18 13 18 7 0 13 -4 13 -7z
m777 -12 c-3 -8 -6 -5 -6 6 -1 11 2 17 5 13 3 -3 4 -12 1 -19z m147 7 c3 -8 1
-15 -4 -15 -6 0 -10 7 -10 15 0 8 2 15 4 15 2 0 6 -7 10 -15z m266 0 c0 -2 -9
-3 -19 -2 -11 0 -18 5 -15 9 4 6 34 0 34 -7z m-3040 -124 c0 -110 -3 -132 -19
-152 -10 -13 -17 -30 -15 -37 1 -7 0 -8 -3 -2 -2 5 -9 10 -14 10 -6 0 -8 -3
-6 -7 10 -15 -81 -7 -125 11 l-45 19 37 33 c27 24 42 32 59 27 34 -9 41 11 41
125 l0 102 45 0 45 0 0 -129z m300 89 l0 -40 -75 0 c-69 0 -75 -2 -75 -21 0
-19 5 -20 64 -17 49 2 62 0 54 -9 -6 -8 -6 -18 1 -30 17 -33 -1 -45 -63 -42
-48 4 -56 2 -56 -13 0 -16 10 -18 80 -18 l80 0 0 -45 0 -45 -130 0 -130 0 0
160 0 160 125 0 125 0 0 -40z m288 -2 l-3 -41 -72 2 c-69 2 -73 1 -73 -19 0
-20 4 -21 63 -18 l62 3 -4 -34 c-2 -21 2 -36 10 -42 7 -4 -18 -7 -59 -6 -63 2
-72 0 -72 -15 0 -16 10 -18 73 -18 39 0 79 -5 87 -10 8 -5 10 -10 4 -10 -6 0
-10 -15 -10 -32 l1 -33 -127 -3 -128 -3 0 161 0 160 126 0 125 0 -3 -42z m260
-13 c38 -54 39 -55 56 -36 10 11 15 24 11 30 -3 6 0 9 7 6 7 -3 22 8 33 25 17
25 26 30 63 30 l42 0 0 -160 0 -160 -50 0 -50 0 0 78 -1 77 -32 -38 c-18 -20
-35 -37 -39 -37 -4 0 -23 21 -43 46 l-35 47 0 -87 c0 -47 3 -86 6 -86 3 0 13
8 22 18 10 10 13 12 8 5 -5 -9 -4 -13 5 -14 8 0 5 -4 -6 -8 -11 -5 -34 -6 -51
-4 -24 4 -32 0 -42 -19 -12 -23 -12 -23 -8 0 3 17 0 22 -17 22 -22 0 -22 2
-19 160 l3 160 49 0 c47 0 49 -1 88 -55z m1680 38 c-10 -2 -28 -2 -40 0 -13 2
-5 4 17 4 22 1 32 -1 23 -4z m609 -43 c15 0 15 2 -3 16 -18 15 -18 15 3 5 29
-15 33 -14 33 7 0 14 2 15 10 2 7 -11 3 -18 -13 -28 -21 -12 -20 -13 8 -6 17
4 46 7 65 6 22 0 30 2 21 8 -10 5 -6 8 11 7 16 -1 24 -7 21 -15 -4 -8 0 -10
13 -5 11 4 15 3 10 -5 -4 -6 -19 -9 -34 -6 -20 4 -34 -2 -54 -20 -22 -21 -28
-23 -38 -12 -12 15 -82 51 -90 47 -3 -2 -4 -8 -2 -14 1 -7 -4 -4 -11 6 -17 21
-28 22 -21 2 4 -8 2 -15 -4 -15 -5 0 -12 9 -15 19 -3 14 2 20 19 24 13 2 25
-1 28 -7 2 -6 5 -2 6 9 1 19 2 18 10 -2 5 -13 17 -23 27 -23z m-1652 11 c-3
-6 -14 -10 -23 -10 -15 1 -15 2 1 6 9 2 17 9 17 15 0 6 3 9 6 5 3 -3 3 -10 -1
-16z m977 -8 c7 -16 12 -37 12 -47 1 -11 7 -21 15 -24 8 -2 11 -1 8 4 -3 5 1
18 9 29 21 28 17 5 -6 -37 -11 -21 -17 -44 -14 -53 3 -8 4 -15 1 -15 -12 0
-48 95 -37 98 5 2 10 8 10 14 0 6 -7 8 -15 4 -8 -3 -15 -1 -15 4 0 6 5 10 11
10 6 0 9 9 6 20 -7 29 2 25 15 -7z m166 14 c-14 -9 -14 -12 -2 -21 12 -9 10
-11 -10 -11 -13 0 -24 2 -24 5 1 21 -4 21 -18 2 -15 -21 -42 -32 -29 -12 3 6
1 10 -4 10 -6 0 -11 5 -11 11 0 8 5 7 15 -1 13 -11 18 -10 29 5 7 10 17 15 22
12 6 -3 16 -2 24 4 21 13 28 10 8 -4z m150 1 c7 -7 12 -16 12 -20 0 -15 -15
-8 -28 12 -13 22 -3 27 16 8z m607 -6 c18 -11 16 -12 -15 -6 -19 3 -31 3 -27
-2 15 -15 57 -15 87 1 17 9 30 11 30 5 0 -5 -8 -11 -17 -11 -17 -1 -17 -2 0
-6 9 -2 17 -9 17 -15 0 -6 -7 -7 -17 -3 -10 4 -39 7 -65 6 -36 -2 -48 2 -48
13 0 8 -3 16 -7 19 -5 2 -2 2 5 1 6 -2 12 1 12 5 0 12 20 8 45 -7z m-2115 -7
c-7 -9 -15 -13 -19 -10 -3 3 1 10 9 15 21 14 24 12 10 -5z m274 0 c-4 -8 -11
-12 -16 -9 -6 4 -5 10 3 15 19 12 19 11 13 -6z m1311 -8 c6 -5 -1 -5 -14 -2
-16 5 -21 4 -17 -4 4 -6 0 -11 -8 -11 -20 0 -20 5 0 25 9 9 19 12 23 8 3 -4
11 -11 16 -16z m-1267 -4 c-51 -21 -48 -31 10 -26 75 6 86 -9 90 -117 3 -59 8
-90 15 -91 7 0 -1 -6 -16 -13 -15 -7 -41 -10 -57 -8 -29 4 -29 5 -32 76 -2 55
-6 71 -18 71 -22 0 -27 -117 -5 -135 8 -7 15 -21 15 -31 0 -26 -15 -24 -17 2
-2 28 -5 29 -31 22 -12 -3 -22 -11 -22 -19 0 -15 -18 -29 -27 -20 -3 3 0 13 8
22 13 16 12 17 -8 12 -14 -4 -24 0 -28 10 -9 25 -4 242 6 242 5 0 9 -4 9 -10
0 -17 48 -11 82 10 18 11 40 20 48 19 8 0 -2 -7 -22 -16z m657 -12 c-6 -21
-25 -20 -25 0 0 6 5 7 10 4 6 -3 10 2 10 11 0 10 3 15 6 11 3 -3 3 -15 -1 -26z
m-1105 9 c-20 -13 -33 -13 -25 0 3 6 14 10 23 10 15 0 15 -2 2 -10z m50 6 c0
-2 -7 -7 -16 -10 -8 -3 -12 -2 -9 4 6 10 25 14 25 6z m320 -6 c0 -5 -2 -10 -4
-10 -3 0 -8 5 -11 10 -3 6 -1 10 4 10 6 0 11 -4 11 -10z m130 0 c0 -5 -10 -10
-22 -9 -22 0 -22 1 -3 9 11 5 21 9 23 9 1 1 2 -3 2 -9z m-413 -6 c-3 -3 -12
-4 -19 -1 -8 3 -5 6 6 6 11 1 17 -2 13 -5z m37 -29 c10 -8 23 -12 30 -11 6 2
8 1 4 -1 -5 -3 -8 -9 -8 -14 0 -6 3 -8 8 -6 4 3 6 -39 4 -93 l-3 -98 -30 8
c-28 8 -29 7 -23 -18 5 -25 4 -24 -12 6 -13 25 -20 30 -30 21 -16 -13 -64 -19
-64 -8 0 5 -6 6 -14 3 -8 -3 -17 0 -22 7 -5 8 -3 10 7 4 8 -5 7 0 -3 12 -26
29 -23 68 8 92 15 12 24 22 20 22 -3 1 -10 2 -15 3 -5 0 -13 5 -18 10 -5 5 -3
6 5 2 14 -8 17 10 3 19 -15 8 -9 44 6 38 7 -3 15 1 18 8 7 18 101 13 129 -6z
m166 -98 c0 -62 3 -123 5 -137 3 -14 2 -19 -1 -11 -5 11 -8 11 -16 0 -6 -10
-7 -7 -3 9 6 22 4 23 -37 21 -24 -1 -49 -7 -55 -12 -9 -7 -13 -5 -13 7 0 9 8
16 18 16 15 1 15 2 -3 17 -14 11 -15 14 -4 10 14 -5 17 6 18 73 1 45 -3 81 -9
85 -5 3 -10 12 -10 18 0 7 4 6 11 -3 9 -12 10 -12 6 5 -3 18 1 20 45 17 l48
-4 0 -111z m1440 108 c0 -8 -2 -15 -4 -15 -2 0 -6 7 -10 15 -3 8 -1 15 4 15 6
0 10 -7 10 -15z m-2675 -5 c3 -5 1 -10 -4 -10 -6 0 -11 5 -11 10 0 6 2 10 4
10 3 0 8 -4 11 -10z m35 0 c0 -5 -5 -10 -11 -10 -5 0 -7 5 -4 10 3 6 8 10 11
10 2 0 4 -4 4 -10z m1471 0 c3 -20 4 -25 13 -38 5 -8 3 -18 -4 -25 -10 -9 -12
-8 -7 6 4 9 3 17 -2 17 -5 0 -11 11 -13 25 -3 14 -1 25 3 25 5 0 10 -4 10 -10z
m389 0 c0 -5 -5 -10 -11 -10 -5 0 -7 5 -4 10 3 6 8 10 11 10 2 0 4 -4 4 -10z
m-351 -45 c0 -5 -4 -3 -9 5 -5 8 -9 22 -9 30 0 16 17 -16 18 -35z m482 12
c-10 -9 -11 -8 -5 6 3 10 9 15 12 12 3 -3 0 -11 -7 -18z m1267 -4 c5 -10 6
-27 2 -38 -6 -16 -8 -12 -12 18 -5 41 -3 45 10 20z m-1651 -8 c0 -8 -4 -12 -9
-9 -5 3 -6 10 -3 15 9 13 12 11 12 -6z m360 -25 c1 -17 0 -30 -2 -30 -9 0 -26
41 -20 50 11 18 20 10 22 -20z m-870 -2 c-3 -8 -6 -5 -6 6 -1 11 2 17 5 13 3
-3 4 -12 1 -19z m451 -8 c-7 -11 -15 -15 -17 -9 -2 6 3 15 10 20 20 12 21 11
7 -11z m1248 8 c4 -7 3 -8 -4 -4 -7 4 -12 1 -12 -8 0 -10 -6 -13 -15 -10 -14
6 -13 8 2 20 22 16 20 16 29 2z m-3419 -20 c-3 -8 -6 -5 -6 6 -1 11 2 17 5 13
3 -3 4 -12 1 -19z m1477 6 c3 -8 2 -12 -4 -9 -6 3 -10 10 -10 16 0 14 7 11 14
-7z m661 -37 c-2 -27 -6 -52 -9 -55 -6 -5 -10 46 -7 78 1 11 -3 10 -14 -4 -8
-11 -15 -14 -15 -7 0 16 21 38 36 38 9 0 11 -15 9 -50z m55 13 c0 -16 -4 -30
-8 -30 -5 0 -7 14 -4 30 2 17 6 30 8 30 2 0 4 -13 4 -30z m-217 5 c-3 -9 -8
-14 -10 -11 -3 3 -2 9 2 15 9 16 15 13 8 -4z m-1739 -9 c-10 -8 -21 -12 -24
-10 -5 6 21 24 34 24 6 0 1 -6 -10 -14z m51 4 c-3 -5 -11 -10 -16 -10 -6 0 -7
5 -4 10 3 6 11 10 16 10 6 0 7 -4 4 -10z m142 -17 c1 -22 -1 -24 -8 -10 -6 9
-7 22 -4 27 9 14 10 13 12 -17z m291 2 c-3 -3 -9 2 -12 12 -6 14 -5 15 5 6 7
-7 10 -15 7 -18z m2899 -52 c-2 -16 -4 -3 -4 27 0 30 2 43 4 28 2 -16 2 -40 0
-55z m-2970 61 c-3 -3 -12 -4 -19 -1 -8 3 -5 6 6 6 11 1 17 -2 13 -5z m673
-19 c-10 -12 -10 -15 0 -15 8 0 11 -3 7 -6 -14 -14 -27 7 -16 27 6 12 13 18
16 15 3 -3 0 -12 -7 -21z m840 15 c0 -5 -2 -10 -4 -10 -3 0 -8 5 -11 10 -3 6
-1 10 4 10 6 0 11 -4 11 -10z m-693 -32 c-3 -8 -6 -5 -6 6 -1 11 2 17 5 13 3
-3 4 -12 1 -19z m-245 -30 c-8 -8 -9 -4 -5 13 4 13 8 18 11 10 2 -7 -1 -18 -6
-23z m615 0 c-3 -7 -5 -2 -5 12 0 14 2 19 5 13 2 -7 2 -19 0 -25z m332 -51
c11 -11 51 -17 51 -7 0 5 -10 16 -22 24 -26 18 -20 20 17 6 21 -8 24 -13 16
-29 -11 -20 -43 -32 -58 -22 -18 11 -33 49 -32 78 1 27 1 26 11 -7 5 -19 13
-38 17 -43z m18 51 c-3 -8 -6 -5 -6 6 -1 11 2 17 5 13 3 -3 4 -12 1 -19z m-57
-22 c0 -8 -6 -17 -12 -19 -8 -3 -6 -6 5 -6 9 -1 17 -8 17 -18 0 -9 -3 -13 -7
-10 -3 4 -12 2 -19 -4 -9 -8 -16 -5 -24 12 -10 17 -9 23 1 30 8 5 18 9 22 9 5
0 5 5 2 10 -3 6 -1 10 4 10 6 0 11 -6 11 -14z m-1936 -12 c3 -8 2 -12 -4 -9
-6 3 -10 10 -10 16 0 14 7 11 14 -7z m203 -6 c-3 -8 -6 -5 -6 6 -1 11 2 17 5
13 3 -3 4 -12 1 -19z m30 -25 c-3 -10 -5 -2 -5 17 0 19 2 27 5 18 2 -10 2 -26
0 -35z m1047 23 c-3 -9 -10 -16 -15 -16 -5 0 -4 9 3 20 14 22 21 20 12 -4z
m-467 -8 c-3 -8 -6 -5 -6 6 -1 11 2 17 5 13 3 -3 4 -12 1 -19z m843 -3 c0 -7
6 -16 13 -18 7 -4 6 -6 -4 -6 -10 -1 -19 9 -21 24 -3 13 -1 22 3 19 5 -3 9
-11 9 -19z m-1134 -4 c0 -11 -5 -17 -13 -14 -10 4 -11 9 -2 19 15 18 15 18 15
-5z m894 9 c0 -5 0 -13 0 -17 0 -14 -33 -8 -38 6 -3 8 0 11 7 7 6 -4 11 -2 11
3 0 6 5 11 10 11 6 0 10 -4 10 -10z m1611 -13 c-10 -9 -11 -8 -5 6 3 10 9 15
12 12 3 -3 0 -11 -7 -18z m-2234 -9 c-3 -8 -6 -5 -6 6 -1 11 2 17 5 13 3 -3 4
-12 1 -19z m128 4 c-3 -3 -11 0 -18 7 -9 10 -8 11 6 5 10 -3 15 -9 12 -12z
m313 5 c9 -10 1 -13 -38 -12 -52 0 -55 11 -5 18 17 2 31 5 31 6 1 0 6 -5 12
-12z m120 4 c7 0 10 -6 6 -12 -3 -6 -17 -9 -30 -6 -14 2 -27 1 -30 -4 -2 -4
-11 -6 -19 -3 -11 4 -11 9 -3 18 10 10 27 12 76 7z m192 0 c0 -6 -4 -13 -10
-16 -5 -3 -10 1 -10 9 0 9 5 16 10 16 6 0 10 -4 10 -9z m32 -13 c-7 -7 -12 -8
-12 -2 0 14 12 26 19 19 2 -3 -1 -11 -7 -17z m175 0 c-3 -8 -6 -5 -6 6 -1 11
2 17 5 13 3 -3 4 -12 1 -19z m401 1 c3 -11 2 -11 -7 1 -9 12 -12 13 -20 1 -5
-8 -11 -9 -15 -3 -3 6 0 13 6 15 19 8 31 3 36 -14z m-2058 1 c0 -5 -2 -10 -4
-10 -3 0 -8 5 -11 10 -3 6 -1 10 4 10 6 0 11 -4 11 -10z m1387 4 c-3 -3 -12
-4 -19 -1 -8 3 -5 6 6 6 11 1 17 -2 13 -5z m403 -2 c0 -4 -17 -6 -37 -4 -59 5
-63 10 -10 11 26 1 47 -3 47 -7z m-2017 -29 c-3 -10 -3 -15 2 -11 4 4 16 3 27
-3 15 -8 17 -13 7 -25 -8 -10 -15 -11 -24 -4 -6 5 -14 8 -16 5 -4 -4 -4 45 0
53 5 11 9 -2 4 -15z m1100 -73 c-3 -11 -9 -20 -14 -20 -14 0 -11 28 4 33 6 3
13 6 14 6 0 1 -1 -8 -4 -19z m-43 -5 c0 -8 -4 -15 -10 -15 -5 0 -10 7 -10 15
0 8 5 15 10 15 6 0 10 -7 10 -15z m-367 -42 c-13 -2 -33 -2 -45 0 -13 2 -3 4
22 4 25 0 35 -2 23 -4z m344 -25 c-3 -7 -5 -2 -5 12 0 14 2 19 5 13 2 -7 2
-19 0 -25z m43 17 c0 -21 20 -19 21 3 0 11 2 13 6 4 8 -20 -31 -52 -48 -41
-11 7 -10 9 6 10 11 0 14 3 8 6 -15 6 -17 33 -3 33 6 0 10 -7 10 -15z m-276
-57 c5 -21 3 -26 -8 -22 -8 3 -12 13 -9 25 5 16 0 19 -38 20 l-44 2 40 6 c46
8 50 6 59 -31z m116 29 c0 -5 -13 -7 -30 -5 -23 4 -30 0 -32 -16 -3 -18 -4
-17 -9 5 -5 25 -4 26 33 25 21 0 38 -5 38 -9z m66 -14 c-10 -10 -19 5 -10 18
6 11 8 11 12 0 2 -7 1 -15 -2 -18z m183 16 c6 9 11 10 15 2 4 -6 2 -11 -4 -11
-6 0 -8 -5 -4 -11 4 -8 -1 -9 -16 -4 -15 5 -20 4 -16 -4 4 -6 2 -11 -3 -11 -6
0 -11 8 -11 17 0 15 -2 14 -16 -3 -8 -10 -14 -14 -11 -9 2 6 7 18 10 28 6 15
10 16 27 5 17 -11 22 -11 29 1z m278 5 c-3 -3 -12 -4 -19 -1 -8 3 -5 6 6 6 11
1 17 -2 13 -5z m173 -9 c0 -8 5 -15 10 -15 6 0 10 7 10 15 0 8 5 15 10 15 6 0
10 -6 10 -13 0 -16 90 -10 91 7 1 17 17 -36 17 -59 l1 -20 -9 20 c-7 16 -9 17
-9 3 -1 -14 -8 -16 -43 -11 -24 3 -64 5 -89 5 l-45 0 15 34 c17 35 31 44 31
19z m-794 -32 c-11 -11 -19 6 -11 24 8 17 8 17 12 0 3 -10 2 -21 -1 -24z m497
30 c-7 -2 -21 -2 -30 0 -10 3 -4 5 12 5 17 0 24 -2 18 -5z m-843 -23 c0 -5 -5
-10 -11 -10 -5 0 -7 5 -4 10 3 6 8 10 11 10 2 0 4 -4 4 -10z m255 0 c3 -5 -1
-10 -9 -10 -9 0 -16 5 -16 10 0 6 4 10 9 10 6 0 13 -4 16 -10z m42 4 c-3 -3
-12 -4 -19 -1 -8 3 -5 6 6 6 11 1 17 -2 13 -5z m520 0 c-3 -3 -12 -4 -19 -1
-8 3 -5 6 6 6 11 1 17 -2 13 -5z m43 -4 c-13 -9 -13 -11 0 -20 11 -8 7 -9 -15
-4 -36 8 -45 14 -22 14 10 0 17 5 17 10 0 6 8 10 18 10 14 0 15 -2 2 -10z
m105 0 c3 -5 -3 -10 -14 -10 -12 0 -21 5 -21 10 0 6 6 10 14 10 8 0 18 -4 21
-10z m-790 -10 c3 -5 -1 -10 -9 -10 -9 0 -16 5 -16 10 0 6 4 10 9 10 6 0 13
-4 16 -10z m-132 -7 c-7 -2 -19 -2 -25 0 -7 3 -2 5 12 5 14 0 19 -2 13 -5z
m515 -45 c2 -63 -10 -91 -30 -69 -8 9 -9 11 -1 7 6 -3 14 -2 18 4 3 5 2 10 -3
10 -6 0 -13 7 -16 16 -5 13 -4 14 7 6 11 -9 13 -4 11 26 -1 33 2 52 10 52 1 0
3 -24 4 -52z m165 31 c6 6 20 11 31 11 20 0 20 0 0 -16 -10 -8 -12 -12 -4 -8
13 7 13 5 1 -9 -7 -9 -18 -14 -24 -10 -23 14 -47 38 -47 46 0 5 7 1 16 -8 12
-11 20 -13 27 -6z m-493 2 c0 -5 -9 -11 -21 -14 -16 -4 -18 -3 -8 9 13 16 29
19 29 5z m40 5 c0 -2 -7 -6 -15 -10 -8 -3 -15 -1 -15 4 0 6 7 10 15 10 8 0 15
-2 15 -4z m101 -13 c1 -17 2 -17 6 0 3 10 13 17 26 16 17 -1 18 -2 5 -6 -10
-2 -18 -11 -18 -19 0 -17 -12 -18 -28 -2 -15 15 -16 28 -2 28 6 0 11 -8 11
-17z m-764 -20 c0 -10 -3 -10 -15 0 -13 10 -14 9 -3 -11 14 -27 9 -106 -7
-108 -7 -1 -25 -2 -42 -3 -25 -1 -30 -5 -30 -26 0 -22 -4 -25 -34 -25 l-35 0
-3 93 -3 92 86 0 c61 0 86 -4 86 -12z m75 -20 c-4 -28 -1 -33 17 -33 17 0 21
6 21 31 0 21 -4 28 -12 23 -7 -4 -10 -4 -6 0 4 5 37 9 73 10 70 3 95 -8 95
-42 1 -11 6 -8 16 11 8 15 18 27 22 28 4 0 22 2 40 5 l32 4 -36 -66 c-25 -46
-35 -74 -32 -95 4 -27 2 -29 -29 -29 -29 0 -33 3 -33 28 -1 15 -16 56 -35 91
l-33 63 1 -88 0 -89 -31 -3 c-30 -3 -32 -1 -32 27 0 24 -4 31 -20 31 -16 0
-20 -7 -20 -31 0 -28 -2 -30 -32 -27 l-31 3 0 82 c1 44 3 85 6 90 3 5 18 9 34
8 26 0 28 -3 25 -32z m498 -59 l0 -94 -30 0 -30 0 0 93 0 92 30 1 30 1 0 -93z
m40 82 c0 -2 -8 -10 -17 -17 -16 -13 -17 -12 -4 4 13 16 21 21 21 13z m1170
-11 c-7 -8 -18 -15 -24 -15 -6 0 -2 7 8 15 25 19 32 19 16 0z m-700 -70 c0
-37 -4 -65 -10 -65 -11 0 -14 88 -4 114 11 28 14 17 14 -49z m-583 20 c0 -8
-4 -12 -9 -9 -5 3 -6 10 -3 15 9 13 12 11 12 -6z m740 -25 c-1 -22 -31 -27
-43 -8 -4 6 -3 8 4 4 6 -3 13 -2 17 4 3 5 0 10 -7 10 -10 0 -9 3 2 9 19 13 29
5 27 -19z m-1012 -42 c2 -17 -2 -24 -16 -25 -10 -1 -21 2 -24 7 -2 4 3 7 12 6
9 0 18 6 20 14 4 12 3 13 -5 1 -8 -11 -12 -9 -23 10 -11 22 -11 23 4 10 18
-15 23 -3 7 17 -5 7 -3 6 6 -2 9 -8 18 -25 19 -38z m-535 22 c0 -5 -7 -10 -15
-10 -8 0 -15 5 -15 10 0 6 7 10 15 10 8 0 15 -4 15 -10z"/>
<path d="M530 8469 c0 -9 -6 -20 -12 -23 -10 -5 -10 -7 0 -12 6 -3 12 -14 12
-24 0 -29 61 -22 78 10 9 16 10 26 3 28 -6 2 -11 11 -11 20 0 13 -9 17 -35 18
-27 0 -35 -4 -35 -17z"/>
<path d="M6260 8025 c0 -7 39 -12 49 -5 7 4 -1 7 -18 8 -17 0 -31 -1 -31 -3z"/>
<path d="M6250 7996 c7 -7 13 -7 20 0 6 6 3 10 -10 10 -13 0 -16 -4 -10 -10z"/>
<path d="M4325 7050 c-3 -5 -2 -10 4 -10 5 0 13 5 16 10 3 6 2 10 -4 10 -5 0
-13 -4 -16 -10z"/>
<path d="M3135 6355 c-45 -44 -35 -55 55 -55 78 0 80 1 80 24 0 55 -91 76
-135 31z"/>
<path d="M3697 6174 c-37 -16 -55 -48 -44 -78 8 -20 79 -40 110 -32 28 7 34
20 39 81 3 39 2 40 -32 42 -19 1 -52 -5 -73 -13z"/>
<path d="M2075 5341 c-49 -12 -108 -83 -121 -144 -28 -136 -26 -224 6 -339 22
-77 90 -130 169 -131 89 -1 153 56 181 163 20 76 15 245 -9 314 -28 81 -46
105 -94 127 -44 19 -81 22 -132 10z"/>
<path d="M4948 5343 c-17 -4 -18 -27 -18 -309 l0 -304 63 0 c133 1 198 35 244
128 23 47 28 73 31 153 9 212 -70 324 -234 333 -38 2 -77 2 -86 -1z"/>
<path d="M1260 4069 l0 -162 66 6 c104 8 154 61 154 162 0 95 -57 150 -160
154 l-60 2 0 -162z"/>
<path d="M2775 4070 l0 -160 47 0 c113 0 168 53 168 161 0 108 -52 159 -162
159 l-53 0 0 -160z"/>
<path d="M2055 4125 c-4 -16 -13 -52 -21 -80 -8 -27 -22 -75 -31 -105 -9 -30
-22 -74 -29 -97 l-13 -43 99 0 100 0 -7 33 c-3 17 -14 56 -24 85 -10 28 -16
52 -14 52 2 0 -3 19 -11 42 -8 23 -16 54 -19 69 -3 15 -9 38 -14 51 -9 23 -9
23 -16 -7z"/>
<path d="M1263 3130 c-39 -24 -41 -34 -8 -56 22 -15 26 -15 40 0 22 22 52 20
65 -4 14 -27 0 -52 -44 -80 -50 -31 -86 -77 -86 -111 l0 -29 105 0 105 0 0 30
c0 30 -1 30 -55 30 -30 0 -55 3 -55 7 0 4 25 30 55 58 67 62 73 98 26 146 -36
36 -98 40 -148 9z"/>
<path d="M1774 3131 c-40 -24 -64 -77 -64 -138 0 -66 26 -113 80 -140 40 -21
45 -21 78 -7 20 8 42 20 49 26 27 22 50 83 50 128 0 115 -104 185 -193 131z
m110 -63 c9 -13 16 -43 16 -71 0 -41 -5 -53 -30 -78 -24 -25 -33 -28 -49 -19
-12 6 -26 20 -32 31 -16 31 -13 106 5 134 21 33 69 34 90 3z"/>
<path d="M2690 3137 c-42 -21 -69 -82 -66 -149 5 -115 95 -180 184 -134 41 21
63 59 69 121 13 124 -88 212 -187 162z m102 -64 c21 -25 24 -118 4 -149 -16
-24 -50 -31 -72 -16 -35 23 -46 120 -18 160 19 27 65 29 86 5z"/>
<path d="M3568 3121 l-32 -28 32 -17 c29 -15 32 -15 41 1 8 14 14 16 38 8 40
-15 40 -40 1 -77 -18 -17 -32 -35 -31 -39 2 -5 -3 -6 -11 -3 -16 6 -54 -43
-66 -86 l-9 -30 110 0 109 0 0 30 c0 30 -1 30 -55 30 -30 0 -55 4 -55 9 0 6
22 29 50 52 56 47 65 66 56 115 -13 67 -119 88 -178 35z"/>
<path d="M4072 3126 c-37 -32 -63 -111 -53 -157 26 -113 121 -162 199 -103 62
48 79 131 43 211 -34 73 -130 98 -189 49z m123 -62 c21 -32 17 -124 -6 -146
-28 -28 -49 -29 -75 -3 -19 19 -24 34 -24 77 0 66 20 98 59 98 20 0 34 -8 46
-26z"/>
<path d="M4580 3133 c-48 -32 -50 -45 -11 -60 24 -9 31 -8 35 3 7 18 50 18 66
-1 18 -22 4 -48 -46 -86 -45 -34 -76 -74 -89 -116 -6 -23 -6 -23 104 -23 l111
0 0 30 c0 30 -1 30 -55 30 -30 0 -55 3 -55 8 0 4 25 30 55 58 67 62 73 98 26
145 -24 23 -38 29 -73 29 -24 0 -54 -7 -68 -17z"/>
<path d="M5076 3129 c-108 -85 -56 -289 74 -289 96 0 156 128 110 236 -31 71
-126 99 -184 53z m119 -69 c27 -53 16 -127 -24 -157 -19 -13 -65 6 -75 32 -13
34 -6 118 11 137 26 29 70 23 88 -12z"/>
<path d="M2253 3121 c-40 -20 -44 -51 -8 -51 l25 0 0 -110 0 -110 40 0 40 0 0
145 0 145 -32 -1 c-18 -1 -48 -9 -65 -18z"/>
<path d="M3140 2975 c0 -24 2 -25 74 -25 72 0 74 1 74 25 0 24 -2 25 -74 25
-72 0 -74 -1 -74 -25z"/>
<path d="M3453 818 c-1 -11 1 -16 5 -12 4 5 11 12 15 15 5 3 2 9 -5 12 -9 3
-14 -3 -15 -15z"/>
<path d="M4430 731 c-8 -6 -18 -7 -22 -5 -4 3 -8 0 -8 -7 0 -7 9 -9 23 -5 12
3 25 6 30 6 4 0 7 5 7 10 0 12 -10 13 -30 1z"/>
<path d="M3676 675 c4 -8 11 -15 16 -15 6 0 5 6 -2 15 -7 8 -14 15 -16 15 -2
0 -1 -7 2 -15z"/>
<path d="M2380 630 c-18 -12 -2 -12 25 0 13 6 15 9 5 9 -8 0 -22 -4 -30 -9z"/>
<path d="M2400 560 c0 -5 7 -7 15 -4 8 4 15 8 15 10 0 2 -7 4 -15 4 -8 0 -15
-4 -15 -10z"/>
<path d="M900 400 c0 -13 18 -22 24 -11 3 5 -1 11 -9 15 -8 3 -15 1 -15 -4z"/>
<path d="M875 130 c-4 -6 3 -10 14 -10 25 0 27 6 6 13 -8 4 -17 2 -20 -3z"/>
<path d="M3300 8755 c0 -3 9 -14 20 -25 11 -11 20 -18 20 -15 0 3 8 1 18 -4 9
-5 32 -11 50 -14 40 -7 51 -15 33 -26 -25 -16 4 -19 132 -13 131 5 171 17 70
21 -32 1 -60 5 -63 8 -3 3 13 20 34 39 l39 34 -176 0 c-98 0 -177 -2 -177 -5z
m240 -45 c-21 -14 -30 -12 -30 4 0 18 22 27 35 14 6 -6 5 -12 -5 -18z"/>
<path d="M3928 8727 c-24 -18 -43 -38 -43 -44 0 -6 16 -28 35 -50 106 -119
205 -223 210 -223 3 0 13 12 24 26 15 22 16 28 5 36 -10 7 -7 7 9 3 12 -3 22
-2 22 2 0 5 15 24 33 43 18 19 46 53 62 75 17 22 38 49 47 59 22 24 13 37 -51
78 -43 27 -49 28 -177 28 l-132 0 -44 -33z m253 -171 c-7 -8 -9 -25 -5 -39 5
-22 3 -26 -14 -24 -12 0 -18 5 -16 9 3 5 10 5 16 2 6 -4 9 -1 6 7 -3 8 -10 14
-15 14 -6 0 -15 3 -19 8 -4 4 0 7 8 7 9 0 21 7 28 15 7 8 15 15 17 15 3 0 0
-6 -6 -14z"/>
<path d="M4430 8746 c0 -25 26 -37 69 -30 43 7 46 4 41 -41 -1 -11 -6 -24 -11
-29 -5 -6 -9 -13 -9 -17 0 -4 14 6 30 23 23 23 30 39 30 69 l0 39 -75 0 c-57
0 -75 -3 -75 -14z"/>
<path d="M1210 8620 c0 -5 5 -10 10 -10 6 0 10 5 10 10 0 6 -4 10 -10 10 -5 0
-10 -4 -10 -10z"/>
<path d="M1287 8619 c7 -7 15 -10 18 -7 3 3 -2 9 -12 12 -14 6 -15 5 -6 -5z"/>
<path d="M1260 8590 c-8 -5 -10 -10 -5 -10 6 0 17 5 25 10 8 5 11 10 5 10 -5
0 -17 -5 -25 -10z"/>
<path d="M5120 8310 c-12 -8 -10 -10 8 -10 13 0 20 4 17 10 -7 12 -6 12 -25 0z"/>
<path d="M4815 8093 c-18 -14 -18 -15 -2 -9 10 3 23 6 28 6 5 0 9 5 9 10 0 14
-12 12 -35 -7z"/>
<path d="M4838 8063 c6 -2 18 -2 25 0 6 3 1 5 -13 5 -14 0 -19 -2 -12 -5z"/>
<path d="M4667 8003 c-3 -5 6 -9 20 -10 19 -1 22 1 12 8 -17 11 -26 11 -32 2z"/>
<path d="M4210 7706 c0 -2 7 -7 16 -10 8 -3 12 -2 9 4 -6 10 -25 14 -25 6z"/>
<path d="M3884 7149 c-5 -8 -3 -9 6 -4 7 4 16 2 22 -6 8 -12 9 -12 6 0 -6 20
-24 25 -34 10z"/>
<path d="M3800 7146 c0 -2 7 -7 16 -10 8 -3 12 -2 9 4 -6 10 -25 14 -25 6z"/>
<path d="M3960 7076 c0 -3 9 -10 20 -16 11 -6 20 -8 20 -6 0 3 -9 10 -20 16
-11 6 -20 8 -20 6z"/>
<path d="M3945 7055 c11 -9 29 -21 40 -26 l20 -10 -20 16 c-11 9 -29 21 -40
26 l-20 10 20 -16z"/>
<path d="M4038 7003 c6 -2 10 -9 7 -13 -3 -5 4 -14 15 -20 11 -6 20 -8 20 -4
0 4 9 -1 20 -11 20 -18 21 -18 47 8 15 14 24 29 20 33 -4 4 -16 -4 -27 -19
l-20 -25 -31 29 c-17 16 -39 29 -48 28 -10 0 -11 -2 -3 -6z m37 -23 c3 -6 -1
-7 -9 -4 -18 7 -21 14 -7 14 6 0 13 -4 16 -10z"/>
<path d="M6498 1073 c12 -2 32 -2 45 0 12 2 2 4 -23 4 -25 0 -35 -2 -22 -4z"/>
<path d="M5556 965 c-3 -8 -1 -15 3 -15 5 0 11 7 15 15 3 8 1 15 -3 15 -5 0
-11 -7 -15 -15z"/>
<path d="M5525 920 c-3 -6 1 -7 9 -4 18 7 21 14 7 14 -6 0 -13 -4 -16 -10z"/>
<path d="M5577 894 c-8 -8 1 -24 14 -24 5 0 9 7 9 15 0 15 -12 20 -23 9z"/>
<path d="M5353 835 c2 -28 6 -30 50 -35 32 -4 47 -2 47 6 0 7 -12 10 -30 8
-16 -2 -30 1 -30 6 0 6 5 10 12 10 6 0 8 3 5 7 -4 3 -17 -2 -29 -13 -17 -15
-20 -16 -16 -3 4 9 2 22 -3 30 -5 9 -7 4 -6 -16z"/>
<path d="M5421 839 c-1 -11 9 -15 34 -16 19 -1 37 3 40 7 3 5 -10 7 -30 6 -19
-2 -36 2 -39 8 -2 6 -5 4 -5 -5z"/>
<path d="M5516 828 c3 -4 -2 -8 -11 -8 -23 0 -65 -49 -65 -76 0 -21 10 -29 33
-25 4 0 7 -3 7 -8 0 -5 -3 -11 -7 -14 -5 -2 -2 -2 5 -1 6 2 12 -2 12 -8 0 -6
3 -9 6 -6 3 3 -4 25 -16 47 -23 47 -21 55 20 76 28 14 28 14 59 -33 29 -45 43
-52 21 -11 -9 15 -7 19 7 19 17 1 17 1 1 11 -9 5 -15 16 -12 23 3 8 1 17 -5
21 -6 3 -14 -1 -17 -9 -3 -9 -10 -13 -15 -10 -5 3 -7 9 -5 13 3 4 -1 8 -9 8
-8 0 -12 -4 -9 -9z m52 -24 c0 -17 -3 -22 -8 -13 -5 6 -6 18 -3 26 8 19 11 16
11 -13z"/>
<path d="M5326 803 c4 -10 8 -32 10 -49 1 -24 -2 -31 -15 -30 -23 2 -39 19
-33 36 5 13 4 13 -10 0 -13 -13 -14 -16 -1 -25 12 -9 7 -10 -20 -7 -19 2 -38
-1 -41 -7 -4 -6 -2 -11 4 -11 6 0 8 -5 5 -10 -4 -6 -11 -7 -17 -4 -7 4 -8 2
-4 -4 4 -6 -1 -10 -13 -9 -13 1 -19 8 -18 20 1 11 -4 22 -12 25 -10 3 -11 0
-5 -9 5 -8 7 -23 5 -33 -2 -14 2 -17 13 -13 10 4 16 1 16 -9 0 -8 -3 -13 -7
-11 -5 3 -8 -19 -8 -48 0 -30 4 -51 9 -47 5 3 7 -2 3 -11 -4 -10 -2 -17 4 -17
6 0 9 -7 6 -14 -4 -11 -1 -13 11 -9 15 6 15 5 3 -10 -12 -15 -12 -17 3 -11 20
8 20 18 1 34 -21 18 -29 76 -16 121 16 51 48 72 106 67 l45 -3 0 35 c0 46 -10
80 -22 80 -6 0 -7 -7 -2 -17z"/>
<path d="M4940 770 c0 -5 5 -10 10 -10 6 0 10 5 10 10 0 6 -4 10 -10 10 -5 0
-10 -4 -10 -10z"/>
<path d="M4723 753 c-14 -5 -18 -33 -5 -33 4 0 13 9 20 20 12 20 8 23 -15 13z"/>
<path d="M4815 750 c-3 -5 1 -10 10 -10 9 0 13 5 10 10 -3 6 -8 10 -10 10 -2
0 -7 -4 -10 -10z"/>
<path d="M4971 746 c-10 -12 -8 -14 11 -10 21 5 21 4 4 -6 -15 -10 -16 -14 -5
-21 11 -7 10 -9 -3 -9 -10 0 -18 5 -18 11 0 5 -4 8 -10 4 -12 -8 -2 -34 13
-31 7 1 26 10 42 19 24 14 26 17 6 11 -16 -4 -21 -3 -17 5 4 6 13 11 21 11 7
0 16 7 19 16 6 15 4 15 -10 3 -13 -11 -18 -11 -21 -1 -6 16 -18 15 -32 -2z"/>
<path d="M5058 753 c7 -3 16 -2 19 1 4 3 -2 6 -13 5 -11 0 -14 -3 -6 -6z"/>
<path d="M4935 740 c-3 -5 -1 -10 4 -10 6 0 11 5 11 10 0 6 -2 10 -4 10 -3 0
-8 -4 -11 -10z"/>
<path d="M5228 743 c7 -3 16 -2 19 1 4 3 -2 6 -13 5 -11 0 -14 -3 -6 -6z"/>
<path d="M5065 731 c19 -8 18 -9 -5 -13 -19 -4 -15 -6 13 -7 21 0 47 -6 58
-11 23 -13 25 -1 4 26 -14 17 -15 18 -9 0 7 -17 5 -17 -24 -2 -17 9 -37 16
-44 15 -7 0 -4 -4 7 -8z"/>
<path d="M3135 721 c-3 -5 -1 -12 5 -16 5 -3 10 1 10 9 0 18 -6 21 -15 7z"/>
<path d="M5596 695 c8 -37 14 -45 14 -19 0 10 -5 26 -10 34 -8 11 -9 7 -4 -15z"/>
<path d="M3256 685 c-3 -8 -1 -15 4 -15 6 0 10 7 10 15 0 8 -2 15 -4 15 -2 0
-6 -7 -10 -15z"/>
<path d="M5650 695 c0 -5 5 -17 10 -25 5 -8 10 -10 10 -5 0 6 -5 17 -10 25 -5
8 -10 11 -10 5z"/>
<path d="M5447 673 c-2 -5 -4 -35 -4 -68 0 -53 0 -54 4 -12 2 27 9 47 16 47 7
0 6 4 -3 10 -8 5 -11 12 -7 16 3 4 13 1 22 -6 8 -7 15 -8 15 -2 0 5 -7 13 -16
16 -20 8 -22 8 -27 -1z"/>
<path d="M3547 650 c-3 -12 0 -20 8 -20 8 0 11 8 8 20 -3 11 -7 20 -8 20 -1 0
-5 -9 -8 -20z"/>
<path d="M5503 630 c0 -35 2 -40 8 -22 5 12 5 32 0 44 -6 18 -8 13 -8 -22z"/>
<path d="M3302 625 c2 -30 7 -37 33 -45 29 -10 29 -10 -7 -6 -21 3 -40 0 -43
-5 -4 -5 1 -9 9 -9 12 0 16 -10 16 -40 0 -38 -2 -40 -29 -40 -29 0 -49 -15
-36 -28 3 -3 10 -1 14 7 6 10 10 8 15 -5 6 -16 8 -16 16 -4 6 9 10 10 10 3 0
-6 9 -9 20 -6 22 6 28 48 8 56 -10 4 -10 6 0 6 6 1 12 7 12 15 0 8 7 22 16 30
18 19 10 36 -17 36 -18 0 -24 14 -21 53 1 9 -3 17 -8 17 -6 0 -10 -16 -8 -35z
m28 -155 c0 -5 -5 -10 -11 -10 -5 0 -7 5 -4 10 3 6 8 10 11 10 2 0 4 -4 4 -10z"/>
<path d="M5642 640 c0 -14 2 -19 5 -12 2 6 2 18 0 25 -3 6 -5 1 -5 -13z"/>
<path d="M5607 583 c-2 -37 -8 -77 -12 -88 -3 -11 1 -7 10 8 15 26 25 130 13
142 -3 3 -8 -25 -11 -62z"/>
<path d="M4296 631 c-4 -5 3 -7 14 -4 23 6 26 13 6 13 -8 0 -17 -4 -20 -9z"/>
<path d="M3822 618 c-16 -16 -15 -33 2 -47 22 -18 48 -2 44 28 -3 28 -27 38
-46 19z m23 -18 c-12 -5 -14 -9 -6 -9 8 -1 12 -4 8 -7 -9 -9 -28 6 -22 17 4 5
14 9 23 8 14 0 13 -2 -3 -9z"/>
<path d="M4565 620 c-3 -6 -5 -34 -4 -63 1 -29 -1 -59 -6 -66 -6 -11 -4 -11
10 -4 13 8 22 6 36 -8 21 -21 39 -25 39 -9 0 6 -9 10 -20 10 -17 0 -19 8 -22
72 -3 67 -16 95 -33 68z m25 -61 c0 -27 -4 -49 -10 -49 -5 0 -10 25 -10 56 0
34 4 53 10 49 6 -3 10 -28 10 -56z"/>
<path d="M4848 620 c12 -5 22 -16 22 -25 0 -16 15 -20 24 -6 7 10 -37 41 -56
40 -7 0 -3 -4 10 -9z"/>
<path d="M5296 622 c-3 -5 -3 -17 -1 -28 2 -10 4 -22 4 -26 2 -16 31 -7 42 13
8 16 8 24 -1 33 -8 8 -9 6 -4 -8 6 -16 4 -18 -10 -13 -10 4 -20 7 -23 7 -3 0
0 7 7 15 8 9 9 15 2 15 -6 0 -13 -4 -16 -8z m24 -42 c0 -5 -2 -10 -4 -10 -3 0
-8 5 -11 10 -3 6 -1 10 4 10 6 0 11 -4 11 -10z"/>
<path d="M4810 597 c0 -22 16 -37 40 -37 4 0 8 11 8 25 0 14 -5 25 -10 25 -6
0 -8 -9 -5 -19 3 -13 1 -18 -9 -14 -7 2 -10 11 -8 18 3 7 1 16 -5 20 -7 4 -11
-3 -11 -18z"/>
<path d="M3120 577 c0 -19 10 -27 26 -20 11 4 12 9 3 19 -15 18 -29 18 -29 1z"/>
<path d="M3380 579 c0 -5 5 -7 10 -4 6 3 10 8 10 11 0 2 -4 4 -10 4 -5 0 -10
-5 -10 -11z"/>
<path d="M5464 582 c4 -7 0 -24 -9 -38 -9 -14 -18 -38 -21 -52 -2 -17 6 -6 21
27 19 41 23 57 14 65 -9 8 -10 8 -5 -2z"/>
<path d="M4007 574 c-11 -11 -8 -26 3 -19 6 3 10 -1 10 -10 0 -9 -4 -13 -10
-10 -5 3 -10 1 -10 -4 0 -13 10 -14 27 -3 8 5 8 13 -1 30 -7 12 -15 19 -19 16z"/>
<path d="M4923 552 l22 -24 -28 -24 c-15 -13 -35 -24 -43 -24 -8 0 -14 -4 -14
-10 0 -12 22 -9 32 5 5 6 8 5 8 -2 0 -7 4 -13 10 -13 5 0 6 8 3 18 -6 15 -5
16 12 2 17 -14 17 -13 10 9 -5 18 -4 22 5 16 8 -5 11 -4 6 3 -3 6 -2 13 4 17
5 3 10 -2 10 -11 0 -10 3 -14 6 -11 8 7 54 -42 54 -57 0 -5 3 -6 6 -3 4 4 1
13 -6 22 -7 8 -9 15 -5 15 3 0 -6 11 -22 24 -16 13 -35 35 -42 49 -8 15 -22
25 -32 24 -17 -1 -17 -3 4 -25z m18 1 c13 -16 12 -17 -3 -4 -10 7 -18 15 -18
17 0 8 8 3 21 -13z"/>
<path d="M4310 560 c0 -5 7 -7 15 -4 8 4 15 8 15 10 0 2 -7 4 -15 4 -8 0 -15
-4 -15 -10z"/>
<path d="M5050 566 c0 -2 7 -7 16 -10 8 -3 12 -2 9 4 -6 10 -25 14 -25 6z"/>
<path d="M5140 561 c0 -5 6 -14 14 -20 12 -10 13 -8 9 8 -5 21 -23 30 -23 12z"/>
<path d="M5500 545 c0 -19 -4 -23 -17 -19 -14 5 -15 4 -4 -4 9 -6 11 -17 6
-28 -7 -18 -8 -18 -16 1 -7 16 -8 14 -4 -8 4 -19 2 -26 -5 -22 -11 7 -14 -8
-3 -18 3 -4 14 6 24 22 23 37 40 101 28 101 -5 0 -9 -11 -9 -25z"/>
<path d="M3355 539 c-4 -6 -4 -13 -1 -16 3 -4 6 0 6 8 0 11 2 11 10 -1 8 -13
10 -12 10 3 0 19 -15 23 -25 6z"/>
<path d="M4210 513 c0 -13 48 -54 53 -45 3 4 -9 17 -24 30 -16 13 -29 19 -29
15z"/>
<path d="M5163 509 c-6 -6 -28 -17 -49 -24 -44 -16 -26 -20 23 -6 21 6 35 5
44 -2 11 -10 11 -9 0 5 -7 9 -10 22 -6 28 8 13 2 13 -12 -1z"/>
<path d="M3497 496 c-8 -21 17 -51 34 -40 8 4 24 7 37 5 12 -1 22 2 22 8 0 15
-23 26 -28 13 -2 -6 -10 -8 -19 -5 -8 3 -19 0 -24 -8 -7 -9 -8 -5 -3 14 6 28
-9 39 -19 13z"/>
<path d="M4152 500 c2 -8 7 -18 13 -22 5 -4 6 -10 2 -14 -4 -4 -13 -2 -19 4
-7 7 -19 12 -27 12 -9 0 -3 -7 12 -15 24 -12 57 -12 57 1 0 3 -9 15 -21 27
-13 14 -19 17 -17 7z"/>
<path d="M3355 480 c-3 -5 -1 -10 4 -10 6 0 11 5 11 10 0 6 -2 10 -4 10 -3 0
-8 -4 -11 -10z"/>
<path d="M3935 480 l-30 -8 33 -1 c17 0 32 4 32 9 0 6 -1 9 -2 9 -2 -1 -16 -5
-33 -9z"/>
<path d="M4335 479 c-4 -6 -5 -12 -2 -15 2 -3 7 2 10 11 7 17 1 20 -8 4z"/>
<path d="M4955 479 c-4 -6 -5 -12 -2 -15 2 -3 7 2 10 11 7 17 1 20 -8 4z"/>
<path d="M5232 483 c-7 -2 -17 -14 -23 -26 -11 -22 -11 -22 10 1 24 24 37 28
44 12 3 -6 4 -5 3 2 -3 14 -16 18 -34 11z"/>
<path d="M5340 481 c0 -5 5 -13 10 -16 6 -4 7 -11 4 -17 -4 -7 -2 -8 5 -4 6 4
9 12 6 17 -4 5 4 9 16 9 28 0 23 5 -13 14 -16 3 -28 2 -28 -3z"/>
<path d="M3430 459 c0 -11 5 -17 10 -14 6 4 8 11 5 16 -3 5 1 6 9 3 9 -3 13
-11 9 -18 -4 -6 1 -5 10 3 25 20 21 31 -13 31 -24 0 -30 -4 -30 -21z"/>
<path d="M4277 466 c-3 -6 3 -12 14 -12 24 0 32 21 9 23 -10 1 -20 -4 -23 -11z"/>
<path d="M4362 471 c-10 -6 -10 -10 3 -21 13 -11 15 -10 9 4 -9 23 32 22 45
-1 12 -21 24 -13 15 11 -7 17 -50 22 -72 7z"/>
<path d="M4650 470 c0 -6 7 -10 15 -10 8 0 15 2 15 4 0 2 -7 6 -15 10 -8 3
-15 1 -15 -4z"/>
<path d="M5046 473 c5 -5 12 -12 16 -18 4 -6 8 -2 8 8 0 9 -7 17 -17 17 -9 0
-12 -3 -7 -7z"/>
<path d="M5283 463 c0 -10 3 -10 15 -1 11 10 17 8 28 -7 8 -10 14 -14 14 -8 0
14 -22 30 -41 30 -9 0 -16 -6 -16 -14z"/>
<path d="M5140 459 c0 -5 4 -8 9 -5 5 4 12 0 14 -6 3 -8 6 -6 6 5 1 9 -6 17
-14 17 -8 0 -15 -5 -15 -11z"/>
<path d="M5577 457 c-7 -19 8 -43 17 -28 4 6 2 11 -5 11 -8 0 -8 4 1 15 7 9 8
15 2 15 -5 0 -12 -6 -15 -13z"/>
<path d="M3885 450 c-3 -5 -2 -10 4 -10 5 0 13 5 16 10 3 6 2 10 -4 10 -5 0
-13 -4 -16 -10z"/>
<path d="M5085 450 c3 -5 8 -10 11 -10 2 0 4 5 4 10 0 6 -5 10 -11 10 -5 0 -7
-4 -4 -10z"/>
<path d="M5445 421 c-7 -12 31 -34 48 -28 7 3 0 8 -15 12 -16 4 -25 11 -22 16
3 5 3 9 0 9 -3 0 -7 -4 -11 -9z"/>
<path d="M5547 404 c-11 -14 -16 -28 -13 -31 3 -3 8 1 12 10 3 9 11 15 17 13
7 -1 9 -1 5 1 -4 2 -4 11 -1 19 8 21 0 17 -20 -12z"/>
<path d="M5505 381 c-3 -5 -2 -12 3 -15 5 -3 9 1 9 9 0 17 -3 19 -12 6z"/>
<path d="M3378 353 c12 -2 32 -2 45 0 12 2 2 4 -23 4 -25 0 -35 -2 -22 -4z"/>
<path d="M3022 262 c7 -8 14 -9 17 -3 4 5 24 11 46 14 27 3 22 4 -17 3 -45 -1
-54 -3 -46 -14z"/>
<path d="M3291 264 c0 -11 3 -14 6 -6 3 7 2 16 -1 19 -3 4 -6 -2 -5 -13z"/>
<path d="M3341 264 c0 -11 3 -14 6 -6 3 7 2 16 -1 19 -3 4 -6 -2 -5 -13z"/>
<path d="M3625 270 c-3 -5 -1 -10 4 -10 6 0 11 5 11 10 0 6 -2 10 -4 10 -3 0
-8 -4 -11 -10z"/>
<path d="M3655 270 c-3 -5 -3 -10 2 -11 4 -1 -3 -5 -17 -9 -24 -8 -24 -8 -2
-9 12 -1 22 -5 22 -11 0 -5 8 -10 18 -10 13 0 14 2 3 9 -8 5 -12 18 -8 30 5
21 -7 29 -18 11z"/>
<path d="M3710 270 l-25 -8 27 -1 c15 -1 30 4 33 9 7 11 0 11 -35 0z"/>
<path d="M2920 250 l-45 -7 40 -1 c22 0 51 4 65 8 32 10 5 10 -60 0z"/>
<path d="M2996 225 c7 -17 0 -19 -68 -15 -28 1 -48 -3 -48 -8 0 -6 11 -9 25
-6 25 4 25 4 25 -71 l0 -76 22 15 c16 12 25 13 35 4 7 -6 16 -8 19 -5 3 3 -8
13 -24 21 -20 10 -32 12 -34 5 -2 -6 -4 10 -6 35 -1 37 3 48 20 61 26 18 61
19 90 4 13 -7 24 -7 30 -1 6 6 -6 12 -31 16 -27 4 -41 11 -41 21 0 8 -4 15
-10 15 -5 0 -7 -7 -4 -15z"/>
<path d="M3025 230 c3 -5 8 -10 11 -10 2 0 4 5 4 10 0 6 -5 10 -11 10 -5 0 -7
-4 -4 -10z"/>
<path d="M3326 215 c-5 -15 -9 -16 -15 -6 -7 11 -9 11 -14 0 -4 -10 -6 -11 -6
-1 -2 24 -51 -18 -51 -44 0 -19 -5 -24 -25 -24 -24 0 -25 -2 -25 -65 l0 -65
-30 0 -30 0 0 64 c0 63 0 64 -30 68 -37 6 -56 -10 -33 -28 10 -6 23 -9 31 -6
11 4 11 6 0 14 -10 8 -10 9 2 5 11 -2 15 -18 15 -53 1 -59 -1 -65 -22 -57 -14
6 -14 7 1 19 10 6 14 14 9 16 -4 2 -19 -8 -33 -22 l-25 -25 78 -3 c67 -2 77 0
78 16 0 9 1 37 2 62 2 32 6 45 17 45 11 0 17 -15 21 -50 5 -43 6 -39 7 33 1
45 5 82 10 83 63 9 109 2 130 -18 26 -26 28 -50 5 -83 -16 -24 -16 -24 1 -10
26 21 49 22 41 2 -3 -9 -3 -13 1 -9 4 4 14 1 22 -6 14 -11 -27 68 -51 100 -5
7 -6 16 -4 20 3 5 -4 10 -15 10 -12 1 -25 8 -29 15 -7 10 -9 10 -10 -2 0 -10
-3 -9 -8 4 -7 19 -8 19 -15 1z m-242 -91 c3 -8 2 -12 -4 -9 -6 3 -10 10 -10
16 0 14 7 11 14 -7z"/>
<path d="M3708 148 c4 -143 9 -157 10 -35 1 64 -1 117 -5 117 -5 0 -7 -37 -5
-82z"/>
<path d="M3731 214 c0 -11 3 -14 6 -6 3 7 2 16 -1 19 -3 4 -6 -2 -5 -13z"/>
<path d="M5410 207 c-19 -4 -41 -8 -47 -9 -7 -1 -11 -3 -9 -6 8 -7 -18 -30
-28 -25 -5 3 -7 -25 -4 -62 3 -56 8 -71 27 -86 13 -11 28 -19 35 -18 6 0 1 5
-10 11 -28 13 -44 49 -44 98 0 74 86 114 155 72 28 -17 30 -17 48 1 13 13 29
17 54 15 23 -2 37 2 39 10 1 7 0 9 -2 4 -2 -5 -18 -6 -34 -4 -17 2 -40 -2 -54
-11 -22 -15 -27 -14 -58 1 -25 13 -42 16 -68 9z"/>
<path d="M3112 202 c-7 -5 13 -8 47 -8 32 1 54 4 48 8 -16 10 -79 10 -95 0z"/>
<path d="M3634 105 c0 -61 1 -84 3 -52 2 32 2 81 0 110 -2 29 -3 3 -3 -58z"/>
<path d="M3757 199 c7 -9 9 -20 5 -24 -4 -5 -1 -5 6 -1 6 4 12 3 12 -1 0 -5
-6 -15 -12 -22 -10 -11 -10 -13 0 -7 9 5 12 -6 12 -46 0 -30 -6 -60 -12 -67
-10 -11 -10 -13 0 -7 7 4 12 1 12 -8 0 -12 9 -16 33 -15 30 2 30 2 5 6 l-28 4
0 96 c0 53 -3 93 -7 90 -3 -4 -13 -1 -22 6 -14 10 -14 10 -4 -4z"/>
<path d="M3940 202 c0 -4 9 -8 20 -9 11 -1 18 2 15 8 -7 11 -35 12 -35 1z"/>
<path d="M4075 200 c-3 -5 -1 -10 4 -10 6 0 11 5 11 10 0 6 -2 10 -4 10 -3 0
-8 -4 -11 -10z"/>
<path d="M4104 197 c-4 -7 -3 -9 1 -4 5 4 16 0 26 -9 13 -12 19 -12 25 -3 4 8
3 10 -4 5 -7 -4 -12 -3 -12 2 0 15 -29 22 -36 9z"/>
<path d="M4244 203 c10 -10 46 -11 46 -1 0 4 -12 8 -27 8 -14 0 -23 -3 -19 -7z"/>
<path d="M4476 202 c-3 -5 1 -9 9 -9 8 0 12 4 9 9 -3 4 -7 8 -9 8 -2 0 -6 -4
-9 -8z"/>
<path d="M4558 198 c5 -5 16 -8 23 -6 8 3 3 7 -10 11 -17 4 -21 3 -13 -5z"/>
<path d="M5110 200 c0 -6 7 -10 15 -10 8 0 15 2 15 4 0 2 -7 6 -15 10 -8 3
-15 1 -15 -4z"/>
<path d="M2850 180 c-6 -11 -7 -20 -2 -20 6 0 12 9 15 20 3 11 3 20 1 20 -2 0
-8 -9 -14 -20z"/>
<path d="M3428 193 c7 -3 16 -2 19 1 4 3 -2 6 -13 5 -11 0 -14 -3 -6 -6z"/>
<path d="M3478 172 c14 -22 16 -22 25 -5 6 10 14 20 18 24 5 3 -6 5 -25 5 -33
0 -34 0 -18 -24z"/>
<path d="M3562 136 c-31 -61 -41 -119 -23 -130 5 -4 7 13 5 36 -2 24 -1 37 2
31 3 -7 10 -13 16 -13 6 0 5 6 -2 15 -11 13 -11 20 0 41 8 15 16 20 20 13 5
-7 9 -5 13 6 4 9 3 13 -3 10 -13 -8 -13 1 1 27 6 11 9 21 7 23 -2 3 -18 -24
-36 -59z"/>
<path d="M3818 193 c6 -2 18 -2 25 0 6 3 1 5 -13 5 -14 0 -19 -2 -12 -5z"/>
<path d="M3863 185 c-3 -9 -3 -19 1 -22 8 -9 37 18 30 28 -8 14 -24 11 -31 -6z"/>
<path d="M3902 173 c-24 -27 -27 -33 -13 -33 9 0 45 50 39 55 -2 2 -13 -8 -26
-22z"/>
<path d="M4172 188 c-1 -9 -9 -21 -17 -25 -13 -8 -12 -15 4 -58 37 -98 37 -95
-3 -95 -25 0 -36 4 -36 15 0 20 -46 20 -54 0 -4 -11 -22 -15 -71 -15 l-65 0 0
43 0 42 -20 -25 -20 -25 -20 24 -20 23 1 -48 c2 -46 2 -47 8 -14 6 32 7 34 18
15 7 -11 13 -17 13 -13 0 5 9 -1 20 -12 16 -16 33 -20 90 -20 49 0 70 4 70 13
0 8 4 7 11 -3 9 -13 10 -12 5 3 -7 21 1 22 20 2 17 -17 94 -21 94 -4 0 5 5 7
10 4 6 -4 10 18 10 59 0 59 -2 66 -19 66 -15 0 -21 8 -24 33 -2 17 -5 24 -5
15z m-2 -38 c0 -5 -5 -10 -11 -10 -5 0 -7 5 -4 10 3 6 8 10 11 10 2 0 4 -4 4
-10z m35 -72 c1 -26 -1 -48 -3 -48 -4 0 -32 67 -32 77 0 4 5 1 10 -7 6 -9 10
-10 10 -3 0 7 -8 17 -17 22 -16 9 -15 10 7 9 23 -2 25 -6 25 -50z m-285 -40
c0 -18 -2 -20 -9 -8 -6 8 -7 18 -5 22 9 14 14 9 14 -14z"/>
<path d="M4208 193 c7 -3 16 -2 19 1 4 3 -2 6 -13 5 -11 0 -14 -3 -6 -6z"/>
<path d="M4358 193 c7 -3 16 -2 19 1 4 3 -2 6 -13 5 -11 0 -14 -3 -6 -6z"/>
<path d="M4410 167 c0 -20 4 -37 9 -37 10 0 8 57 -3 67 -3 3 -6 -10 -6 -30z"/>
<path d="M4437 178 c-3 -12 -2 -29 3 -37 7 -12 9 -6 10 22 0 42 -5 48 -13 15z"/>
<path d="M4523 193 c-9 -3 -13 -32 -13 -94 l0 -89 -30 0 c-27 0 -30 3 -30 30
0 24 -4 30 -20 30 -12 0 -20 -6 -19 -13 5 -39 -1 -47 -36 -47 l-35 0 0 65 c0
63 -1 65 -25 65 -24 0 -25 -2 -25 -64 l0 -65 -32 -4 c-32 -4 -32 -4 5 -5 l37
-2 0 65 c0 52 3 65 15 65 13 0 16 -11 14 -50 -2 -27 -6 -50 -11 -50 -4 0 -8
-5 -8 -11 0 -5 4 -8 9 -4 5 3 12 1 16 -5 3 -5 22 -10 41 -10 29 0 36 5 49 32
14 32 15 32 11 6 -4 -35 2 -37 139 -35 90 1 96 1 32 4 l-78 4 3 94 c2 52 3 95
3 94 0 0 -6 -3 -12 -6z"/>
<path d="M4758 193 c6 -2 12 -10 12 -18 0 -7 7 -18 16 -26 13 -11 19 -8 39 17
13 16 21 31 19 34 -3 2 -9 -2 -13 -9 -5 -7 -13 -11 -19 -7 -6 3 -14 1 -18 -5
-4 -8 -3 -9 4 -5 7 4 12 2 12 -3 0 -18 -19 -12 -30 9 -6 11 -16 20 -23 19 -9
0 -9 -2 1 -6z"/>
<path d="M5041 190 c0 -17 38 -110 38 -95 1 6 -8 33 -19 60 -10 28 -19 43 -19
35z"/>
<path d="M5061 194 c-1 -6 2 -14 7 -18 4 -4 7 -13 7 -19 0 -7 9 -16 21 -21 18
-8 21 -17 19 -68 -2 -53 0 -59 20 -64 13 -3 34 -4 46 -1 16 3 12 5 -13 6 l-38
1 0 65 c0 59 -2 65 -21 65 -18 0 -21 5 -17 30 3 22 2 27 -8 19 -8 -7 -14 -6
-17 3 -3 7 -6 8 -6 2z"/>
<path d="M5230 193 c5 -2 10 -16 10 -29 0 -19 -5 -24 -24 -24 -20 0 -23 -4
-19 -21 5 -18 7 -19 15 -5 17 31 27 16 30 -46 3 -62 3 -63 33 -64 28 -1 28 -1
3 3 -27 4 -27 5 -30 95 -2 64 -7 92 -16 94 -7 1 -8 0 -2 -3z"/>
<path d="M5268 193 c7 -3 16 -2 19 1 4 3 -2 6 -13 5 -11 0 -14 -3 -6 -6z"/>
<path d="M2457 183 c-10 -10 -8 -155 2 -149 5 3 11 -3 14 -14 5 -18 13 -20 79
-18 l73 2 -72 3 -73 4 0 89 c0 83 -5 101 -23 83z"/>
<path d="M3990 108 c0 -84 4 -93 20 -39 6 23 6 30 -3 25 -7 -3 -3 2 8 12 16
13 17 16 3 11 -14 -5 -17 0 -16 28 1 28 4 33 15 24 7 -6 11 -15 8 -19 -3 -5
-1 -11 5 -15 5 -3 10 -2 10 4 0 5 3 17 7 27 5 13 3 16 -10 11 -9 -3 -19 -2
-22 3 -17 27 -25 2 -25 -72z"/>
<path d="M4901 108 c0 -60 3 -77 9 -60 5 12 6 30 3 39 -4 10 -2 14 4 10 6 -4
14 0 17 9 3 8 2 12 -4 9 -11 -7 -25 39 -16 54 4 5 2 12 -4 16 -6 4 -10 -23 -9
-77z"/>
<path d="M5638 178 c8 -8 9 -15 1 -25 -8 -9 -8 -13 0 -13 6 0 11 5 11 11 0 5
4 8 9 5 5 -3 11 1 14 9 4 10 1 12 -10 8 -11 -4 -14 -2 -9 5 4 8 0 12 -10 12
-14 0 -15 -3 -6 -12z"/>
<path d="M4687 160 c-4 -16 -14 -20 -54 -22 -43 -1 -44 -2 -10 -5 32 -4 37 -8
37 -29 0 -21 -5 -24 -37 -26 -34 -1 -33 -2 12 -7 42 -5 50 -9 51 -27 1 -12 4
-26 8 -33 9 -14 63 -14 72 0 4 8 9 7 15 -2 6 -10 9 -10 9 -2 0 6 -4 15 -10 18
-16 10 -12 25 5 19 8 -4 23 0 32 7 15 13 15 12 6 -5 -18 -32 7 -46 81 -46 36
0 67 3 69 8 3 4 -26 6 -64 4 l-69 -4 0 44 -1 43 -20 -25 -21 -25 -19 24 -19
23 0 -41 c0 -39 -2 -41 -30 -41 -33 0 -33 0 -30 113 1 58 -4 73 -13 37z m-2
-65 c1 -14 -2 -22 -5 -19 -3 3 -5 16 -5 29 -1 14 2 22 5 19 3 -3 5 -16 5 -29z"/>
<path d="M4935 167 c-10 -8 -15 -19 -11 -26 10 -15 22 -7 29 19 6 24 6 24 -18
7z"/>
<path d="M1731 137 c-6 -8 -7 -18 -3 -22 4 -5 -5 -1 -20 8 -15 9 -34 17 -41
17 -22 0 -39 -27 -32 -49 8 -27 32 -33 63 -15 l27 15 -40 -5 c-27 -4 -34 -3
-20 3 19 8 19 9 -5 14 -14 3 -5 4 20 2 25 -2 46 -4 48 -4 1 -1 2 -10 2 -20 0
-26 15 -34 30 -16 9 11 17 12 32 4 11 -6 22 -8 24 -6 3 3 -9 12 -27 21 -34 17
-53 21 -31 7 11 -7 11 -9 0 -14 -11 -4 -14 4 -13 34 2 44 2 44 -14 26z m-54
-13 c-3 -3 -12 -4 -19 -1 -8 3 -5 6 6 6 11 1 17 -2 13 -5z"/>
<path d="M2851 145 c-2 -5 -5 -37 -6 -70 -3 -59 -3 -60 -34 -63 -30 -3 -31 -2
-31 38 0 27 -4 39 -11 34 -6 -3 -9 -14 -6 -24 4 -16 1 -17 -17 -10 -16 6 -23
5 -23 -5 0 -7 8 -10 18 -8 10 3 22 -3 28 -15 10 -18 21 -20 113 -20 77 0 97 3
82 11 -10 6 -22 15 -26 21 -5 7 -8 4 -8 -6 0 -14 -8 -18 -35 -18 l-34 0 -4 73
c-1 39 -5 68 -6 62z"/>
<path d="M5485 128 c-11 -12 -13 -17 -4 -10 13 10 18 8 28 -14 14 -32 5 -46
-14 -21 -7 10 -16 14 -19 9 -8 -13 21 -25 67 -26 32 -1 35 1 21 11 -9 7 -20
10 -24 8 -7 -4 -25 26 -32 53 -2 9 -10 6 -23 -10z"/>
<path d="M3010 136 c0 -2 7 -7 16 -10 8 -3 12 -2 9 4 -6 10 -25 14 -25 6z"/>
<path d="M3310 130 c0 -5 7 -10 16 -10 8 0 12 5 9 10 -3 6 -10 10 -16 10 -5 0
-9 -4 -9 -10z"/>
<path d="M5402 128 c-16 -16 -15 -33 3 -51 15 -15 55 -12 55 4 0 5 -7 5 -17 2
-11 -4 -14 -3 -9 5 4 7 2 12 -3 12 -6 0 -11 -5 -11 -12 0 -9 -3 -9 -12 0 -17
17 21 45 39 30 9 -7 13 -7 13 0 0 9 -22 22 -39 22 -4 0 -12 -5 -19 -12z"/>
<path d="M5639 111 c12 -12 19 -27 15 -33 -5 -7 -3 -8 5 -4 9 6 9 13 -2 29 -7
11 -20 23 -27 25 -7 3 -3 -5 9 -17z"/>
<path d="M3566 102 c-2 -4 2 -16 10 -27 8 -10 14 -14 14 -8 0 7 -5 15 -10 18
-6 4 -8 11 -5 16 4 5 4 9 1 9 -3 0 -7 -3 -10 -8z"/>
<path d="M5088 83 c-6 -25 1 -53 13 -53 6 0 7 6 1 16 -5 9 -7 25 -5 35 3 11 3
19 0 19 -2 0 -7 -8 -9 -17z"/>
<path d="M3088 73 c7 -3 16 -2 19 1 4 3 -2 6 -13 5 -11 0 -14 -3 -6 -6z"/>
<path d="M2350 41 c0 -27 -4 -30 -37 -34 -32 -4 -31 -4 9 -4 45 1 46 1 43 29
-2 15 0 28 5 28 5 0 10 -12 12 -27 3 -24 8 -28 38 -29 35 -1 35 -1 3 3 -29 4
-33 8 -33 34 0 22 -5 29 -20 29 -15 0 -20 -7 -20 -29z"/>
<path d="M3396 61 c-3 -4 3 -16 14 -26 18 -16 18 -16 13 4 -6 25 -19 35 -27
22z"/>
<path d="M3310 45 c0 -27 30 -45 75 -43 l40 1 -35 4 c-22 3 -44 14 -57 30 -19
22 -23 23 -23 8z"/>
<path d="M3446 30 c13 -25 21 -30 47 -28 l32 1 -32 4 c-23 3 -33 10 -37 29 -4
13 -10 24 -15 24 -5 0 -3 -13 5 -30z"/>
<path d="M1721 19 c-17 -14 -19 -19 -8 -19 9 0 19 5 22 10 5 8 11 7 21 0 7 -7
19 -10 26 -7 8 4 7 6 -4 6 -9 1 -21 7 -25 15 -7 12 -12 11 -32 -5z"/>
<path d="M4998 33 c14 -3 21 -10 19 -17 -4 -9 9 -12 42 -13 39 0 41 0 9 4 -25
3 -38 9 -38 19 0 9 -10 14 -27 13 -25 -2 -26 -2 -5 -6z"/>
<path d="M3217 23 c-4 -3 -7 -11 -7 -17 0 -6 5 -5 12 2 6 6 9 14 7 17 -3 3 -9
2 -12 -2z"/>
<path d="M5480 13 c-17 -9 -20 -13 -8 -13 9 0 20 5 23 10 5 8 11 7 21 -1 8 -6
16 -10 19 -8 2 3 -4 9 -13 15 -12 7 -24 6 -42 -3z"/>
<path d="M2730 16 c0 -2 7 -7 16 -10 8 -3 12 -2 9 4 -6 10 -25 14 -25 6z"/>
<path d="M3240 8 c0 -5 18 -8 40 -8 22 0 40 2 40 4 0 2 -18 6 -40 8 -22 2 -40
0 -40 -4z"/>
<path d="M5620 10 c-12 -7 -10 -9 7 -7 12 0 19 5 17 9 -6 10 -6 10 -24 -2z"/>
</g>
</svg>
